<?xml version="1.0" encoding="UTF-8"?>
<svg version="1.1" xmlns="http://www.w3.org/2000/svg" width="324" height="324">
<path d="M0 0 C0.88211655 -0.00095673 1.76423309 -0.00191345 2.67308044 -0.00289917 C4.52611361 -0.00357567 6.37914921 -0.00175864 8.23217773 0.00244141 C11.0539282 0.00780363 13.87551999 0.00247501 16.69726562 -0.00390625 C18.50651076 -0.0032455 20.31575581 -0.0019644 22.125 0 C22.96059952 -0.00202423 23.79619904 -0.00404846 24.65711975 -0.00613403 C31.0841103 0.01936489 37.2042594 0.79818097 43.49609375 2.1328125 C43.49609375 2.7928125 43.49609375 3.4528125 43.49609375 4.1328125 C44.07359375 3.9471875 44.65109375 3.7615625 45.24609375 3.5703125 C47.703019 3.09257704 49.14006909 3.37551886 51.49609375 4.1328125 C51.49609375 4.7928125 51.49609375 5.4528125 51.49609375 6.1328125 C52.81609375 5.8028125 54.13609375 5.4728125 55.49609375 5.1328125 C55.49609375 5.7928125 55.49609375 6.4528125 55.49609375 7.1328125 C56.48609375 6.8028125 57.47609375 6.4728125 58.49609375 6.1328125 C58.49609375 6.7928125 58.49609375 7.4528125 58.49609375 8.1328125 C59.48609375 7.8028125 60.47609375 7.4728125 61.49609375 7.1328125 C61.49609375 7.7928125 61.49609375 8.4528125 61.49609375 9.1328125 C62.48609375 8.8028125 63.47609375 8.4728125 64.49609375 8.1328125 C64.49609375 8.7928125 64.49609375 9.4528125 64.49609375 10.1328125 C65.75421875 10.2771875 67.01234375 10.4215625 68.30859375 10.5703125 C73.31992824 11.14538367 77.19424376 12.92650122 81.68359375 15.1953125 C82.77027344 15.74316406 83.85695312 16.29101562 84.9765625 16.85546875 C86.22373047 17.48775391 86.22373047 17.48775391 87.49609375 18.1328125 C87.49609375 18.7928125 87.49609375 19.4528125 87.49609375 20.1328125 C89.14609375 20.4628125 90.79609375 20.7928125 92.49609375 21.1328125 C92.49609375 21.7928125 92.49609375 22.4528125 92.49609375 23.1328125 C93.44484375 23.6071875 94.39359375 24.0815625 95.37109375 24.5703125 C102.49609375 28.1328125 102.49609375 28.1328125 105.49609375 31.1328125 C106.15609375 31.4628125 106.81609375 31.7928125 107.49609375 32.1328125 C108.15609375 32.7928125 108.81609375 33.4528125 109.49609375 34.1328125 C110.48609375 34.4628125 111.47609375 34.7928125 112.49609375 35.1328125 C112.96015625 36.091875 112.96015625 36.091875 113.43359375 37.0703125 C114.30785572 39.2732305 114.30785572 39.2732305 116.375 40.046875 C118.74868283 41.26213067 119.8517429 42.49253221 121.49609375 44.5703125 C124.16738379 47.8149855 126.70914587 50.23933856 130.49609375 52.1328125 C130.61984375 52.7721875 130.74359375 53.4115625 130.87109375 54.0703125 C131.07734375 54.7509375 131.28359375 55.4315625 131.49609375 56.1328125 C132.15609375 56.4628125 132.81609375 56.7928125 133.49609375 57.1328125 C134.15609375 57.4628125 134.81609375 57.7928125 135.49609375 58.1328125 C135.85771404 59.45875355 136.19337414 60.79219707 136.49609375 62.1328125 C137.48609375 62.4628125 138.47609375 62.7928125 139.49609375 63.1328125 C139.82942708 64.46614583 140.16276042 65.79947917 140.49609375 67.1328125 C141.78335282 68.83531643 143.11741094 70.50346009 144.49609375 72.1328125 C145.82942708 74.1328125 147.16276042 76.1328125 148.49609375 78.1328125 C149.30046875 79.1228125 149.30046875 79.1228125 150.12109375 80.1328125 C151.49609375 82.1328125 151.49609375 82.1328125 151.49609375 85.1328125 C151.94984375 85.5865625 152.40359375 86.0403125 152.87109375 86.5078125 C154.90708092 88.54379967 155.53171499 90.43255197 156.49609375 93.1328125 C156.84671875 93.9784375 157.19734375 94.8240625 157.55859375 95.6953125 C158.65246182 98.53936949 159.49609375 101.0760287 159.49609375 104.1328125 C160.15609375 104.4628125 160.81609375 104.7928125 161.49609375 105.1328125 C161.16609375 105.7928125 160.83609375 106.4528125 160.49609375 107.1328125 C161.15609375 107.4628125 161.81609375 107.7928125 162.49609375 108.1328125 C162.16609375 108.7928125 161.83609375 109.4528125 161.49609375 110.1328125 C162.15609375 110.4628125 162.81609375 110.7928125 163.49609375 111.1328125 C163.16609375 111.7928125 162.83609375 112.4528125 162.49609375 113.1328125 C163.15609375 113.4628125 163.81609375 113.7928125 164.49609375 114.1328125 C164.16609375 114.7928125 163.83609375 115.4528125 163.49609375 116.1328125 C164.15609375 116.4628125 164.81609375 116.7928125 165.49609375 117.1328125 C165.16609375 118.1228125 164.83609375 119.1128125 164.49609375 120.1328125 C165.15609375 120.4628125 165.81609375 120.7928125 166.49609375 121.1328125 C173.41855855 144.89785599 172.12305368 172.09375924 167.49609375 196.1328125 C167.295 197.29554688 167.09390625 198.45828125 166.88671875 199.65625 C166.21690816 203.52288384 165.48049177 207.33338154 164.49609375 211.1328125 C163.83609375 211.1328125 163.17609375 211.1328125 162.49609375 211.1328125 C162.82609375 212.1228125 163.15609375 213.1128125 163.49609375 214.1328125 C162.83609375 214.1328125 162.17609375 214.1328125 161.49609375 214.1328125 C161.82609375 215.1228125 162.15609375 216.1128125 162.49609375 217.1328125 C161.83609375 217.1328125 161.17609375 217.1328125 160.49609375 217.1328125 C160.82609375 218.1228125 161.15609375 219.1128125 161.49609375 220.1328125 C160.12109375 223.1953125 160.12109375 223.1953125 158.49609375 226.1328125 C158.16609375 226.7928125 157.83609375 227.4528125 157.49609375 228.1328125 C157.12613281 228.84953125 156.75617188 229.56625 156.375 230.3046875 C154.45140477 234.071966 152.64866661 237.67509393 151.30859375 241.6953125 C150.49609375 244.1328125 150.49609375 244.1328125 148.49609375 245.1328125 C147.79458223 246.4481466 147.1308345 247.78398842 146.49609375 249.1328125 C140.49609375 258.1328125 140.49609375 258.1328125 138.49609375 260.1328125 C138.16609375 260.7928125 137.83609375 261.4528125 137.49609375 262.1328125 C136.83609375 262.7928125 136.17609375 263.4528125 135.49609375 264.1328125 C135.20734375 264.7928125 134.91859375 265.4528125 134.62109375 266.1328125 C133.23240385 268.60159454 131.99990762 268.91884214 129.49609375 270.1328125 C127.86199536 272.01831064 126.67568297 273.71837584 125.68359375 276.0078125 C123.88420072 279.22777898 121.40710443 281.86946688 118.49609375 284.1328125 C117.79226563 284.29394531 117.0884375 284.45507812 116.36328125 284.62109375 C115.74710937 284.78996094 115.1309375 284.95882813 114.49609375 285.1328125 C114.16609375 286.1228125 113.83609375 287.1128125 113.49609375 288.1328125 C112.16276042 288.46614583 110.82942708 288.79947917 109.49609375 289.1328125 C109.16609375 290.1228125 108.83609375 291.1128125 108.49609375 292.1328125 C107.16276042 292.46614583 105.82942708 292.79947917 104.49609375 293.1328125 C104.16609375 294.1228125 103.83609375 295.1128125 103.49609375 296.1328125 C100.85118634 297.94248599 98.54192262 299.11753621 95.49609375 300.1328125 C94.79484375 300.7515625 94.09359375 301.3703125 93.37109375 302.0078125 C90.19861712 304.35268653 87.44657453 305.27429166 83.71484375 306.40625 C80.81990739 307.35423972 78.20249844 308.74660522 75.49609375 310.1328125 C74.83609375 310.1328125 74.17609375 310.1328125 73.49609375 310.1328125 C73.16609375 311.1228125 72.83609375 312.1128125 72.49609375 313.1328125 C71.17609375 312.8028125 69.85609375 312.4728125 68.49609375 312.1328125 C68.16609375 313.1228125 67.83609375 314.1128125 67.49609375 315.1328125 C66.17609375 314.8028125 64.85609375 314.4728125 63.49609375 314.1328125 C63.16609375 314.7928125 62.83609375 315.4528125 62.49609375 316.1328125 C61.83609375 315.8028125 61.17609375 315.4728125 60.49609375 315.1328125 C60.16609375 315.7928125 59.83609375 316.4528125 59.49609375 317.1328125 C54.77059843 318.80642542 50.30816461 319.4506382 45.31640625 319.7890625 C44.71570313 319.9025 44.115 320.0159375 43.49609375 320.1328125 C43.16609375 320.7928125 42.83609375 321.4528125 42.49609375 322.1328125 C41.17609375 321.8028125 39.85609375 321.4728125 38.49609375 321.1328125 C38.16609375 321.7928125 37.83609375 322.4528125 37.49609375 323.1328125 C28.70887555 324.6446501 19.50862783 324.29073548 10.61254883 324.26318359 C8.56388931 324.25782635 6.5154498 324.26316669 4.46679688 324.26953125 C-4.23722347 324.27344088 -12.83262318 323.87696132 -21.50390625 323.1328125 C-21.50390625 322.4728125 -21.50390625 321.8128125 -21.50390625 321.1328125 C-23.15390625 321.4628125 -24.80390625 321.7928125 -26.50390625 322.1328125 C-26.50390625 321.4728125 -26.50390625 320.8128125 -26.50390625 320.1328125 C-27.22835937 320.08382813 -27.9528125 320.03484375 -28.69921875 319.984375 C-33.9374092 319.57928827 -38.5794712 319.07968217 -43.50390625 317.1328125 C-44.61765625 316.7615625 -45.73140625 316.3903125 -46.87890625 316.0078125 C-48.17828125 315.5746875 -48.17828125 315.5746875 -49.50390625 315.1328125 C-49.50390625 314.4728125 -49.50390625 313.8128125 -49.50390625 313.1328125 C-50.10203125 313.3596875 -50.70015625 313.5865625 -51.31640625 313.8203125 C-52.03828125 313.9234375 -52.76015625 314.0265625 -53.50390625 314.1328125 C-54.52587617 313.15527606 -55.5237025 312.1522244 -56.50390625 311.1328125 C-59.11001702 310.41084088 -59.11001702 310.41084088 -61.50390625 310.1328125 C-61.50390625 309.4728125 -61.50390625 308.8128125 -61.50390625 308.1328125 C-65.58498687 306.73010594 -65.58498687 306.73010594 -69.75390625 305.6328125 C-71.50390625 305.1328125 -71.50390625 305.1328125 -73.50390625 303.1328125 C-74.82858371 302.449108 -76.16254258 301.78317064 -77.50390625 301.1328125 C-86.50390625 295.1328125 -86.50390625 295.1328125 -89.00390625 292.5703125 C-91.32919795 289.94890592 -91.32919795 289.94890592 -94.50390625 289.1328125 C-95.50390625 288.1328125 -96.50390625 287.1328125 -97.50390625 286.1328125 C-98.18453125 285.8234375 -98.86515625 285.5140625 -99.56640625 285.1953125 C-101.50390625 284.1328125 -101.50390625 284.1328125 -102.34765625 282.359375 C-103.80930956 279.54470477 -105.6945792 277.67738207 -107.94140625 275.4453125 C-108.72386719 274.65769531 -109.50632813 273.87007813 -110.3125 273.05859375 C-112.43853236 270.93865907 -112.43853236 270.93865907 -115.50390625 270.1328125 C-115.64828125 269.4934375 -115.79265625 268.8540625 -115.94140625 268.1953125 C-116.12703125 267.5146875 -116.31265625 266.8340625 -116.50390625 266.1328125 C-117.16390625 265.8028125 -117.82390625 265.4728125 -118.50390625 265.1328125 C-120.50390625 264.1328125 -120.50390625 264.1328125 -121.25390625 262.0078125 C-121.33640625 261.3890625 -121.41890625 260.7703125 -121.50390625 260.1328125 C-122.16390625 260.1328125 -122.82390625 260.1328125 -123.50390625 260.1328125 C-123.62765625 259.5140625 -123.75140625 258.8953125 -123.87890625 258.2578125 C-124.37587981 255.94160418 -124.37587981 255.94160418 -126.50390625 254.1328125 C-127.17057292 252.79947917 -127.83723958 251.46614583 -128.50390625 250.1328125 C-129.16390625 249.4728125 -129.82390625 248.8128125 -130.50390625 248.1328125 C-131.16390625 247.1428125 -131.82390625 246.1528125 -132.50390625 245.1328125 C-132.99890625 244.5346875 -133.49390625 243.9365625 -134.00390625 243.3203125 C-135.82523915 240.66420202 -136.57193723 238.21995987 -137.50390625 235.1328125 C-137.99505169 233.52591274 -138.4954877 231.92183093 -139.00390625 230.3203125 C-139.24109375 229.55074219 -139.47828125 228.78117188 -139.72265625 227.98828125 C-140.34841118 225.93939696 -140.34841118 225.93939696 -142.50390625 225.1328125 C-142.50390625 223.8128125 -142.50390625 222.4928125 -142.50390625 221.1328125 C-143.16390625 220.8028125 -143.82390625 220.4728125 -144.50390625 220.1328125 C-145.69140625 217.6953125 -145.69140625 217.6953125 -146.50390625 215.1328125 C-146.00890625 214.1428125 -146.00890625 214.1428125 -145.50390625 213.1328125 C-146.16390625 212.8028125 -146.82390625 212.4728125 -147.50390625 212.1328125 C-147.17390625 211.1428125 -146.84390625 210.1528125 -146.50390625 209.1328125 C-147.16390625 208.8028125 -147.82390625 208.4728125 -148.50390625 208.1328125 C-149.13671875 205.98828125 -149.13671875 205.98828125 -149.62890625 203.3203125 C-149.79648438 202.44761719 -149.9640625 201.57492188 -150.13671875 200.67578125 C-150.50390625 198.1328125 -150.50390625 198.1328125 -150.50390625 194.1328125 C-151.16390625 193.8028125 -151.82390625 193.4728125 -152.50390625 193.1328125 C-154.63601099 183.49120499 -153.78666485 172.60005952 -153.81640625 162.7578125 C-153.81968933 161.86973907 -153.82297241 160.98166565 -153.82635498 160.06668091 C-153.84409534 145.24226875 -152.50696575 131.6006199 -148.41015625 117.3203125 C-147.54120653 114.26400658 -146.96359988 111.2740523 -146.50390625 108.1328125 C-145.84390625 108.1328125 -145.18390625 108.1328125 -144.50390625 108.1328125 C-144.54515625 107.2046875 -144.58640625 106.2765625 -144.62890625 105.3203125 C-144.50390625 102.1328125 -144.50390625 102.1328125 -142.50390625 99.1328125 C-140.41436709 94.95373418 -138.9482393 90.5689783 -137.50390625 86.1328125 C-136.84390625 86.1328125 -136.18390625 86.1328125 -135.50390625 86.1328125 C-135.38015625 85.3490625 -135.25640625 84.5653125 -135.12890625 83.7578125 C-134.50390625 81.1328125 -134.50390625 81.1328125 -132.50390625 79.1328125 C-132.17390625 78.4728125 -131.84390625 77.8128125 -131.50390625 77.1328125 C-130.50390625 75.1328125 -130.50390625 75.1328125 -128.50390625 73.1328125 C-128.17390625 72.4728125 -127.84390625 71.8128125 -127.50390625 71.1328125 C-123.50390625 65.1328125 -123.50390625 65.1328125 -121.50390625 63.1328125 C-121.17390625 62.1428125 -120.84390625 61.1528125 -120.50390625 60.1328125 C-119.51390625 59.8028125 -118.52390625 59.4728125 -117.50390625 59.1328125 C-117.35953125 58.4934375 -117.21515625 57.8540625 -117.06640625 57.1953125 C-116.78796875 56.174375 -116.78796875 56.174375 -116.50390625 55.1328125 C-115.17678419 54.45386532 -113.8423893 53.78907871 -112.50390625 53.1328125 C-110.74385307 51.67608181 -110.74385307 51.67608181 -109.0859375 49.98046875 C-108.47169922 49.36880859 -107.85746094 48.75714844 -107.22460938 48.12695312 C-106.59490234 47.48951172 -105.96519531 46.85207031 -105.31640625 46.1953125 C-104.67509766 45.56173828 -104.03378906 44.92816406 -103.37304688 44.27539062 C-102.76267578 43.66244141 -102.15230469 43.04949219 -101.5234375 42.41796875 C-100.96760986 41.85988525 -100.41178223 41.30180176 -99.83911133 40.72680664 C-98.27506189 39.05755292 -98.27506189 39.05755292 -97.50390625 36.1328125 C-96.17057292 35.79947917 -94.83723958 35.46614583 -93.50390625 35.1328125 C-93.17390625 34.1428125 -92.84390625 33.1528125 -92.50390625 32.1328125 C-91.51390625 31.8028125 -90.52390625 31.4728125 -89.50390625 31.1328125 C-88.84390625 30.4728125 -88.18390625 29.8128125 -87.50390625 29.1328125 C-85.03654741 26.66545366 -82.78219104 26.2255741 -79.50390625 25.1328125 C-78.84390625 24.4728125 -78.18390625 23.8128125 -77.50390625 23.1328125 C-76.51390625 22.4728125 -75.52390625 21.8128125 -74.50390625 21.1328125 C-74.07078125 20.6171875 -73.63765625 20.1015625 -73.19140625 19.5703125 C-70.81296493 17.54423285 -68.54949073 17.47121078 -65.50390625 17.1328125 C-65.50390625 16.4728125 -65.50390625 15.8128125 -65.50390625 15.1328125 C-64.94703125 15.0090625 -64.39015625 14.8853125 -63.81640625 14.7578125 C-61.42637929 14.1651006 -61.42637929 14.1651006 -58.94140625 13.0703125 C-56.50390625 12.1328125 -56.50390625 12.1328125 -53.50390625 12.1328125 C-53.17390625 11.4728125 -52.84390625 10.8128125 -52.50390625 10.1328125 C-50.17057292 9.79947917 -47.83723958 9.46614583 -45.50390625 9.1328125 C-45.17390625 8.4728125 -44.84390625 7.8128125 -44.50390625 7.1328125 C-43.51390625 7.6278125 -43.51390625 7.6278125 -42.50390625 8.1328125 C-42.17390625 7.4728125 -41.84390625 6.8128125 -41.50390625 6.1328125 C-39.52390625 6.1328125 -37.54390625 6.1328125 -35.50390625 6.1328125 C-35.17390625 5.4728125 -34.84390625 4.8128125 -34.50390625 4.1328125 C-33.51390625 4.4628125 -32.52390625 4.7928125 -31.50390625 5.1328125 C-31.17390625 4.4728125 -30.84390625 3.8128125 -30.50390625 3.1328125 C-28.5244912 2.83590024 -26.54219663 2.54891632 -24.55078125 2.34765625 C-22.41766812 2.1557277 -22.41766812 2.1557277 -20.00390625 1.6328125 C-13.31757316 0.29554588 -6.79502006 -0.01650084 0 0 Z " fill="#FBFCFC" transform="translate(153.50390625,-0.1328125)"/>
<path d="M0 0 C20.33209663 -0.09034634 40.66403037 -0.16400879 60.99627686 -0.20724869 C70.43720697 -0.22786069 79.87800337 -0.25595524 89.31884766 -0.30175781 C97.54893872 -0.34166729 105.77893293 -0.36744271 114.00911808 -0.37635398 C118.36566727 -0.38156178 122.7219394 -0.3937735 127.07839966 -0.42292023 C131.18240652 -0.45015438 135.28602328 -0.45842893 139.39011192 -0.45243073 C140.89290172 -0.4535274 142.39570511 -0.46143376 143.89841652 -0.4768219 C153.42919882 -0.56959798 160.18454411 -0.14353181 167.6875 6.3125 C175.57604496 15.48026847 178.48018501 23.39995289 178.34057617 35.56860352 C178.34101425 36.58428909 178.34145233 37.59997467 178.34190369 38.6464386 C178.3398284 41.97412941 178.31655675 45.3013044 178.29296875 48.62890625 C178.28736832 50.94774602 178.28310034 53.26658936 178.28010559 55.58543396 C178.26869207 61.66653369 178.2392549 67.74741593 178.20599365 73.82843018 C178.1752174 80.04249124 178.16158413 86.25658769 178.14648438 92.47070312 C178.11438186 104.64724598 178.0616424 116.82357082 178 129 C164.14 129 150.28 129 136 129 C135.96261719 123.29460937 135.92523438 117.58921875 135.88671875 111.7109375 C135.85643602 108.09241793 135.8252862 104.47394738 135.79101562 100.85546875 C135.73672496 95.11444588 135.68561357 89.37351995 135.65356445 83.63232422 C135.62751908 79.00264803 135.58710785 74.37329804 135.53681374 69.74382401 C135.52015338 67.97927539 135.50863393 66.21467037 135.50238609 64.45005417 C135.49273588 61.97465727 135.46466633 59.50009333 135.43237305 57.02490234 C135.43380814 56.29841492 135.43524323 55.57192749 135.4367218 54.82342529 C135.35120047 50.17580433 134.4623488 46.94620051 132 43 C129.45922768 41.72961384 127.66963066 41.86097053 124.82418823 41.84178162 C123.72759888 41.8319928 122.63100952 41.82220398 121.50119019 41.81211853 C120.29278473 41.80636307 119.08437927 41.8006076 117.83935547 41.79467773 C116.57109924 41.78477814 115.30284302 41.77487854 113.99615479 41.76467896 C110.5129335 41.73760179 107.02969863 41.71660749 103.54643011 41.69667697 C99.90821693 41.67483473 96.27004576 41.64743744 92.63186646 41.62062073 C85.74000879 41.57066997 78.84812784 41.52574 71.95622456 41.48259836 C64.11107606 41.43324633 56.26596971 41.37832067 48.42086196 41.32291877 C32.28061207 41.20906214 16.14032359 41.10296699 0 41 C0 27.47 0 13.94 0 0 Z " fill="#114C92" transform="translate(73,94)"/>
<path d="M0 0 C4.12267002 2.96135452 7.34356585 6.09195114 10.25 10.25 C10.73726563 10.89839844 11.22453125 11.54679687 11.7265625 12.21484375 C16.91264223 20.45752354 16.57296565 30.87752333 15.25 40.25 C12.58877796 49.36589514 6.79593323 56.95375439 -1.37890625 61.8125 C-11.4240141 66.95933837 -22.84802663 68.34026242 -33.91015625 65.4140625 C-36.42584678 64.22598678 -38.52460744 62.91700652 -40.75 61.25 C-41.53632813 60.69183594 -42.32265625 60.13367188 -43.1328125 59.55859375 C-50.21901426 53.95745408 -53.92496833 46.72509501 -56.75 38.25 C-57.46233852 26.82518599 -56.9655681 17.37699538 -49.53515625 8.23046875 C-36.18702061 -6.5780756 -17.571692 -10.95302135 0 0 Z " fill="#F4BC44" transform="translate(180.75,156.75)"/>
<path d="M0 0 C12.87 0 25.74 0 39 0 C39 23.76 39 47.52 39 72 C26.13 72 13.26 72 0 72 C0 48.24 0 24.48 0 0 Z " fill="#104C92" transform="translate(73,151)"/>
<path d="M0 0 C8.10260727 1.43755935 15.1602745 3.89165078 21.625 9.125 C23.81395339 13.70190254 23.83842027 18.03342567 23 23 C21.14376591 26.98877783 18.67599114 29.54933924 15 32 C6.9657886 33.18514954 -0.6871071 31.3507235 -8 28 C-8.33 27.34 -8.66 26.68 -9 26 C-7.68 26 -6.36 26 -5 26 C-4.84144531 25.44054687 -4.68289062 24.88109375 -4.51953125 24.3046875 C-2.32157454 16.7514882 0.30665281 9.3880749 3 2 C2.01 1.67 1.02 1.34 0 1 C0 0.67 0 0.34 0 0 Z " fill="#111111" transform="translate(108,266)"/>
<path d="M0 0 C20.41844822 -0.06767166 40.83680591 -0.12295531 61.25533772 -0.15543652 C70.73561423 -0.1709177 80.21581623 -0.19203106 89.69604492 -0.22631836 C97.95721729 -0.25618248 106.2183357 -0.2755659 114.47956055 -0.28226548 C118.85545828 -0.28618283 123.23120161 -0.29541495 127.60704994 -0.31719017 C131.72330775 -0.33750822 135.83934714 -0.34384335 139.95565033 -0.33932304 C141.46859358 -0.34015035 142.98154392 -0.34614392 144.49444389 -0.35761642 C146.55620313 -0.3724879 148.61713185 -0.36897399 150.6789093 -0.36076355 C151.83391591 -0.36352893 152.98892252 -0.36629431 154.17892933 -0.36914349 C157 0 157 0 160 3 C81.79 2.505 81.79 2.505 2 2 C2 14.21 2 26.42 2 39 C4.990625 38.9278125 7.98125 38.855625 11.0625 38.78125 C37.93596587 38.16625355 64.80380068 37.86701706 91.68371582 37.81832886 C94.12917046 37.81249004 96.57458209 37.80277998 99.02001953 37.79199219 C102.89476092 37.77542314 106.76938598 37.76909246 110.64416122 37.77080345 C112.08365338 37.76996191 113.52314783 37.76578488 114.96261978 37.75811195 C116.93876026 37.74836201 118.91495438 37.75236276 120.89111328 37.75708008 C122.00366486 37.75565506 123.11621643 37.75423004 124.26248169 37.75276184 C127 38 127 38 130 40 C87.1 40 44.2 40 0 40 C0 26.8 0 13.6 0 0 Z " fill="#053784" transform="translate(73,94)"/>
<path d="M0 0 C0 0.66 0 1.32 0 2 C-0.66 2 -1.32 2 -2 2 C-1.01 7.61 -0.02 13.22 1 19 C2.65 19 4.3 19 6 19 C6.23783203 18.19949219 6.23783203 18.19949219 6.48046875 17.3828125 C8.40053915 11.25131697 11.00234357 5.67540486 14 0 C16.21161309 2.03708382 17.58544734 3.83957243 18.82421875 6.57421875 C19.28344727 7.57485352 19.28344727 7.57485352 19.75195312 8.59570312 C20.21504883 9.63114258 20.21504883 9.63114258 20.6875 10.6875 C21.00783203 11.38939453 21.32816406 12.09128906 21.65820312 12.81445312 C22.44479147 14.54025143 23.22320597 16.2697711 24 18 C25.32 18 26.64 18 28 18 C28.36164523 15.37583048 28.71461153 12.75099687 29.0625 10.125 C29.16626953 9.37863281 29.27003906 8.63226563 29.37695312 7.86328125 C30.06427502 3.82400166 30.06427502 3.82400166 29 0 C33.31606218 -0.35233161 33.31606218 -0.35233161 36 1 C38.78703181 4.77163957 40.91836935 8.80510297 43 13 C43.66 10.03 44.32 7.06 45 4 C44.34 4 43.68 4 43 4 C43 3.34 43 2.68 43 2 C44.98 2.33 46.96 2.66 49 3 C49 3.66 49 4.32 49 5 C48.34 5.33 47.68 5.66 47 6 C46.34172224 8.64056545 46.34172224 8.64056545 45.9375 11.75 C45.37511202 15.52404163 44.78167362 19.26456853 44 23 C43.34 23 42.68 23 42 23 C39.03 17.72 36.06 12.44 33 7 C31.90493508 10.28519475 31.90039392 12.73663415 31.9375 16.1875 C31.958125 18.105625 31.97875 20.02375 32 22 C26.39 21.67 20.78 21.34 15 21 C15 20.34 15 19.68 15 19 C15.99 19 16.98 19 18 19 C17.67 17.68 17.34 16.36 17 15 C14.36 15.33 11.72 15.66 9 16 C8.67 16.99 8.34 17.98 8 19 C8.99 19 9.98 19 11 19 C11 19.66 11 20.32 11 21 C5.27959989 21.8320582 -0.22240116 22.12036664 -6 22 C-5.95875 21.071875 -5.9175 20.14375 -5.875 19.1875 C-5.875 14.06686589 -6.67261734 8.94081322 -8 4 C-8.66 3.34 -9.32 2.68 -10 2 C-8.7090864 1.66376204 -7.41723903 1.33110751 -6.125 1 C-5.40570313 0.814375 -4.68640625 0.62875 -3.9453125 0.4375 C-2 0 -2 0 0 0 Z " fill="#242424" transform="translate(146,17)"/>
<path d="M0 0 C1.65 0.66 3.3 1.32 5 2 C5 2.33 5 2.66 5 3 C4.030625 3.2475 3.06125 3.495 2.0625 3.75 C1.051875 4.1625 0.04125 4.575 -1 5 C-1.96877057 7.03243548 -1.96877057 7.03243548 -2 9 C0.87791422 8.60028969 2.64720862 8.28450918 4.9375 6.4375 C7.77260809 4.46151557 9.61835461 4.56830059 13 5 C14.875 6.0625 14.875 6.0625 16 8 C16.375 11.5 16.375 11.5 16 15 C15.00279719 16.00278938 14.00243604 17.00244199 13 18 C12.28090132 19.67427882 11.59564452 21.363336 10.9375 23.0625 C9.42456096 26.2704911 8.74872711 27.6773124 5.453125 29.09765625 C2.94891936 29.57515309 0.54549891 29.89126024 -2 30 C-1.10664203 32.35785318 -1.10664203 32.35785318 2.0625 33.125 C3.031875 33.41375 4.00125 33.7025 5 34 C5 33.34 5 32.68 5 32 C5.66 32 6.32 32 7 32 C6.55090939 33.48199902 6.09043436 34.96055236 5.625 36.4375 C5.36976562 37.26121094 5.11453125 38.08492187 4.8515625 38.93359375 C4 41 4 41 2 42 C2 40.68 2 39.36 2 38 C1.43152344 37.87882812 0.86304687 37.75765625 0.27734375 37.6328125 C-3.50761301 36.81136946 -7.2368538 35.96016876 -10.9375 34.8125 C-13.88789189 33.66827026 -13.88789189 33.66827026 -16 35 C-12.94280763 23.28076256 -12.94280763 23.28076256 -9 19 C-5.875 18.4375 -5.875 18.4375 -3 19 C-1 22 -1 22 -1 25 C-0.278125 24.67 0.44375 24.34 1.1875 24 C4.01697427 22.99396471 6.02895466 22.83022598 9 23 C9 22.01 9 21.02 9 20 C7.05990478 18.29467677 7.05990478 18.29467677 5 17 C8.465 16.505 8.465 16.505 12 16 C12.66 14.02 13.32 12.04 14 10 C9.88422017 11.28717751 9.88422017 11.28717751 6 13.125 C3.18901098 14.3548077 1.03113395 14.32246106 -2 14 C-3.875 12.8125 -3.875 12.8125 -5 11 C-5.5 8.6875 -5.5 8.6875 -5 6 C-3.49500852 3.78431809 -1.83528767 1.97293424 0 0 Z " fill="#141414" transform="translate(41,84)"/>
<path d="M0 0 C12.87 0 25.74 0 39 0 C39 23.76 39 47.52 39 72 C26.13 72 13.26 72 0 72 C0 48.24 0 24.48 0 0 Z M2 2 C2 24.44 2 46.88 2 70 C13.55 70 25.1 70 37 70 C37 47.56 37 25.12 37 2 C25.45 2 13.9 2 2 2 Z " fill="#143E88" transform="translate(73,151)"/>
<path d="M0 0 C5.53846154 3.07692308 5.53846154 3.07692308 7 6 C7.52778794 10.88852762 7.73000486 14.7665435 5.1875 19.0625 C2.33038355 21.59308886 0.40875682 21.96215215 -3.375 22.3125 C-7.65664327 21.94339282 -9.07571696 21.09138492 -12 18 C-14.47601332 13.83579579 -14.15783642 10.63134568 -13 6 C-9.20795258 0.37309092 -6.76511594 -0.56375966 0 0 Z " fill="#171717" transform="translate(296,156)"/>
<path d="M0 0 C3.58552881 1.63687185 4.79315055 2.68972583 7 6 C7.66248749 10.96865615 7.56954654 13.90175375 4.5625 18 C2.0095518 20.6314076 0.16270449 21.5268911 -3.5 21.75 C-8.39008393 21.37002726 -10.67278548 19.49357525 -14 16 C-15.57455739 12.85088521 -15.34799118 10.47991184 -15 7 C-11.24292489 0.69147837 -7.13369592 -0.78046193 0 0 Z " fill="#1B1B1B" transform="translate(285,203)"/>
<path d="M0 0 C0 0.66 0 1.32 0 2 C-0.99 2.33 -1.98 2.66 -3 3 C-2.93941406 3.77601563 -2.87882812 4.55203125 -2.81640625 5.3515625 C-2.17928286 13.56555329 -1.57909893 21.78172371 -1 30 C-4.2268998 28.57937485 -6.39942512 26.85754559 -8.890625 24.375 C-9.59960938 23.66859375 -10.30859375 22.9621875 -11.0390625 22.234375 C-11.76867187 21.49703125 -12.49828125 20.7596875 -13.25 20 C-13.99507812 19.26265625 -14.74015625 18.5253125 -15.5078125 17.765625 C-16.21164063 17.05921875 -16.91546875 16.3528125 -17.640625 15.625 C-18.28547852 14.97789062 -18.93033203 14.33078125 -19.59472656 13.6640625 C-21 12 -21 12 -21 10 C-21.66 10 -22.32 10 -23 10 C-22.34 15.94 -21.68 21.88 -21 28 C-19.68 28.33 -18.36 28.66 -17 29 C-17 29.66 -17 30.32 -17 31 C-20.3 31 -23.6 31 -27 31 C-26.01 30.67 -25.02 30.34 -24 30 C-24.21954833 26.06017847 -24.48082273 22.1242175 -24.75 18.1875 C-24.8428125 16.50817383 -24.8428125 16.50817383 -24.9375 14.79492188 C-25.01484375 13.72177734 -25.0921875 12.64863281 -25.171875 11.54296875 C-25.2347168 10.55321045 -25.29755859 9.56345215 -25.36230469 8.54370117 C-25.85298675 5.45392214 -25.85298675 5.45392214 -30 3 C-24.555 2.505 -24.555 2.505 -19 2 C-19 2.66 -19 3.32 -19 4 C-18.34 4 -17.68 4 -17 4 C-15.4140625 5.609375 -15.4140625 5.609375 -13.625 7.75 C-11.17313888 10.66631058 -8.71236597 13.28763403 -6 16 C-6 11.71 -6 7.42 -6 3 C-7.32 3 -8.64 3 -10 3 C-10 2.34 -10 1.68 -10 1 C-3.375 0 -3.375 0 0 0 Z " fill="#101010" transform="translate(188,275)"/>
<path d="M0 0 C2.96420295 1.80662482 5.42245851 3.84491701 7 7 C7.35580114 10.77149207 7.36270494 13.25731845 5.6875 16.6875 C1.70786181 20.11183984 -2.92109229 21.75848923 -8 23 C-8.66 22.67 -9.32 22.34 -10 22 C-9.67 21.01 -9.34 20.02 -9 19 C-9.76161904 16.09958135 -9.76161904 16.09958135 -10.9375 13 C-13 7.29491525 -13 7.29491525 -13 4 C-13.99 3.67 -14.98 3.34 -16 3 C-10.64822562 0.96122881 -5.79609936 -0.87488292 0 0 Z " fill="#181818" transform="translate(128,22)"/>
<path d="M0 0 C0.66 0 1.32 0 2 0 C3.2890625 1.75 3.2890625 1.75 4.625 4 C5.07101563 4.7425 5.51703125 5.485 5.9765625 6.25 C6.31429687 6.8275 6.65203125 7.405 7 8 C6.42765625 7.83628906 5.8553125 7.67257812 5.265625 7.50390625 C3.00436354 7.00097051 1.05993054 6.89900116 -1.25 6.9375 C-2.4875 6.958125 -3.725 6.97875 -5 7 C-5.33 8.65 -5.66 10.3 -6 12 C-4.37191406 11.93039062 -4.37191406 11.93039062 -2.7109375 11.859375 C-1.26565269 11.82183513 0.17966211 11.78543736 1.625 11.75 C2.33785156 11.71648437 3.05070313 11.68296875 3.78515625 11.6484375 C8.94744597 11.55371659 12.01119362 12.41935056 16 16 C17.07683889 19.08693815 16.7490536 21.84045813 16 25 C13.45798563 28.58872618 11.95903639 29.76476466 7.6875 30.8125 C6.800625 30.874375 5.91375 30.93625 5 31 C5 32.32 5 33.64 5 35 C4.34 35 3.68 35 3 35 C1.4921875 33.3203125 1.4921875 33.3203125 -0.125 31.125 C-0.66382813 30.40570313 -1.20265625 29.68640625 -1.7578125 28.9453125 C-3 27 -3 27 -3 25 C-2.484375 25.309375 -1.96875 25.61875 -1.4375 25.9375 C2.51973897 27.66245032 6.32302413 28.64499072 10.4375 27.0625 C10.953125 26.711875 11.46875 26.36125 12 26 C12 24.35 12 22.7 12 21 C10.83082031 21.05800781 9.66164062 21.11601562 8.45703125 21.17578125 C6.9088942 21.22269449 5.36071383 21.26819298 3.8125 21.3125 C3.04357422 21.35439453 2.27464844 21.39628906 1.48242188 21.43945312 C-2.82303759 21.53184496 -4.47103534 21.41457518 -7.98046875 18.6640625 C-10.35659162 15.52960255 -11.16098536 13.94414127 -11 10 C-8.57663983 6.1079367 -7.17014177 4.30909405 -2.6875 3.125 C-1.3571875 3.063125 -1.3571875 3.063125 0 3 C0 2.01 0 1.02 0 0 Z " fill="#161616" transform="translate(235,250)"/>
<path d="M0 0 C3.06875309 1.4639923 5.90434743 3.14009636 8.75 5 C9.54921875 5.515625 10.3484375 6.03125 11.171875 6.5625 C11.77515625 7.036875 12.3784375 7.51125 13 8 C13 8.66 13 9.32 13 10 C12.29488281 9.85304688 11.58976562 9.70609375 10.86328125 9.5546875 C6.93769833 10.16521472 5.94442653 11.93518573 3.65039062 15.0390625 C2.92625977 16.07160156 2.92625977 16.07160156 2.1875 17.125 C1.68541016 17.79015625 1.18332031 18.4553125 0.66601562 19.140625 C-2.25246095 23.19075575 -3.66871577 25.82752377 -3 31 C-0.14611214 31.62882275 2.11867731 32.09712324 5 32 C7.35856513 30.33174661 8.35254742 29.27081302 10 27 C10.93779297 25.81857422 10.93779297 25.81857422 11.89453125 24.61328125 C15.87562885 19.92958291 15.87562885 19.92958291 16.6953125 14.1875 C16.46585938 13.465625 16.23640625 12.74375 16 12 C19.93673644 13.31224548 22.22719294 14.91910327 25 18 C24.29101562 17.84789062 23.58203125 17.69578125 22.8515625 17.5390625 C19.48892649 18.08261188 19.19607823 18.59422432 17.2109375 21.2109375 C16.2489637 22.58746355 15.30417831 23.97612716 14.375 25.375 C13.42893154 26.76086245 12.47856782 28.14380482 11.5234375 29.5234375 C11.11013184 30.14138184 10.69682617 30.75932617 10.27099609 31.39599609 C8.05369098 34.19424707 6.24387419 34.96717078 2.75 35.4375 C-1.93369532 34.89106888 -4.59856171 33.18604378 -8 30 C-10.38828552 26.41757171 -10.60884641 25.22670232 -10 21 C-7.98447197 17.57518791 -5.36364455 14.60868573 -2.82226562 11.56640625 C0.42914555 7.577033 0.42914555 7.577033 0.83984375 2.53125 C0.56269531 1.6959375 0.28554687 0.860625 0 0 Z " fill="#121212" transform="translate(81,247)"/>
<path d="M0 0 C0.99 0.495 0.99 0.495 2 1 C4.0374763 1.22858114 6.08040303 1.41024278 8.125 1.5625 C9.76855469 1.68818359 9.76855469 1.68818359 11.4453125 1.81640625 C12.28835938 1.87699219 13.13140625 1.93757813 14 2 C12.02 2.99 12.02 2.99 10 4 C10.33 4.66 10.66 5.32 11 6 C14.12197478 4.6910428 14.12197478 4.6910428 16 2 C17.98 2 19.96 2 22 2 C19.93913289 6.8124644 16.32491529 10.36023014 12.8984375 14.24609375 C10.85519571 17.21005561 10.55437977 18.49233217 11 22 C11.89203125 21.71125 12.7840625 21.4225 13.703125 21.125 C14.87359375 20.75375 16.0440625 20.3825 17.25 20 C18.41015625 19.62875 19.5703125 19.2575 20.765625 18.875 C24 18 24 18 28 18 C28 17.01 28 16.02 28 15 C28.66 15 29.32 15 30 15 C30.99706155 17.80423561 31.3915312 19.09573061 31 22 C28.67592423 25.9493406 25.91584847 29.47163194 23 33 C24.27875 32.731875 25.5575 32.46375 26.875 32.1875 C27.59429687 32.03667969 28.31359375 31.88585937 29.0546875 31.73046875 C31.37046549 31.07691162 31.37046549 31.07691162 33 28 C33.66 30.31 34.32 32.62 35 35 C34.34644531 34.79503906 33.69289063 34.59007812 33.01953125 34.37890625 C28.91535551 33.86389325 25.63416725 34.84766963 21.6875 35.9375 C20.94693359 36.13279297 20.20636719 36.32808594 19.44335938 36.52929688 C17.62633887 37.0099281 15.81279386 37.50366514 14 38 C15.47130373 33.6426774 17.83080615 30.28065866 20.625 26.6875 C21.04523438 26.13771484 21.46546875 25.58792969 21.8984375 25.02148438 C22.92720039 23.67707832 23.9629009 22.33798587 25 21 C23.03964825 21.44962196 21.08175691 21.90998248 19.125 22.375 C17.48917969 22.75785156 17.48917969 22.75785156 15.8203125 23.1484375 C12.89591545 23.78906215 12.89591545 23.78906215 11 26 C10.18618205 24.06305322 9.37399084 22.12542289 8.5625 20.1875 C7.88380859 18.56908203 7.88380859 18.56908203 7.19140625 16.91796875 C6.39624987 14.9704874 5.66520352 12.99561057 5 11 C6.32 11.33 7.64 11.66 9 12 C8.67 9.03 8.34 6.06 8 3 C6.35 3 4.7 3 3 3 C2.67 3.99 2.34 4.98 2 6 C1.34 4.02 0.68 2.04 0 0 Z " fill="#131313" transform="translate(266,95)"/>
<path d="M0 0 C0.66 0.33 1.32 0.66 2 1 C1.67 1.33 1.34 1.66 1 2 C1.28360744 6.4431832 2.2862737 9.85595871 4.0625 13.9375 C6.02105743 18.67548084 6.77875497 21.89482856 6 27 C3.22274445 30.6501073 0.48718875 32.93162173 -4 34 C-8.03361177 33.92923488 -10.16521627 33.85730198 -13.02734375 30.91796875 C-15.68584827 26.98548781 -17.15094437 22.79154294 -18.7109375 18.3515625 C-20.15961947 14.45725612 -21.34203832 12.09702113 -25 10 C-23.04350603 9.16235732 -21.08474444 8.33000941 -19.125 7.5 C-18.03445312 7.0359375 -16.94390625 6.571875 -15.8203125 6.09375 C-13 5 -13 5 -11 5 C-11 5.66 -11 6.32 -11 7 C-11.99 7.495 -11.99 7.495 -13 8 C-12.301897 12.50276432 -10.71324524 16.55578171 -9 20.75 C-8.72671875 21.43449219 -8.4534375 22.11898438 -8.171875 22.82421875 C-6.99342906 26.15900063 -6.99342906 26.15900063 -5 29 C-2.22806071 29.29178308 -0.58590175 29.36366316 1.8125 27.875 C3.55527997 25.12324216 3.23675712 23.23943871 3 20 C2.17281864 17.3199324 1.30511307 14.83198343 0.25 12.25 C-0.00265625 11.57839844 -0.2553125 10.90679687 -0.515625 10.21484375 C-1.69928912 7.26160177 -2.50407556 5.3270991 -5.203125 3.546875 C-5.79609375 3.36640625 -6.3890625 3.1859375 -7 3 C-4.69631264 1.93347808 -2.35981813 0.93578995 0 0 Z " fill="#121212" transform="translate(216,264)"/>
<path d="M0 0 C0.66 0 1.32 0 2 0 C2 1.32 2 2.64 2 4 C3.87591322 4.23875259 5.75200402 4.47618231 7.62890625 4.70703125 C9.24169615 4.90630513 10.85366804 5.11228914 12.46484375 5.32421875 C13.26019531 5.42347656 14.05554688 5.52273437 14.875 5.625 C15.61492187 5.72039062 16.35484375 5.81578125 17.1171875 5.9140625 C19.09132508 6.15747517 19.09132508 6.15747517 21 5 C20.54762239 6.91808109 20.08785537 8.83442033 19.625 10.75 C19.24214844 12.35101563 19.24214844 12.35101563 18.8515625 13.984375 C17.50239205 18.76217129 17.50239205 18.76217129 16 21 C12.5 21.875 12.5 21.875 9 22 C8.34 21.34 7.68 20.68 7 20 C7 19.01 7 18.02 7 17 C3.37 18.32 -0.26 19.64 -4 21 C-4.125 18.25 -4.125 18.25 -3 15 C0.18651911 13.20860084 3.51426761 12.07545283 7 11 C7 10.67 7 10.34 7 10 C4.69 9.34 2.38 8.68 0 8 C0 8.66 0 9.32 0 10 C-0.66 9.67 -1.32 9.34 -2 9 C-1.34 6.03 -0.68 3.06 0 0 Z " fill="#191919" transform="translate(281,178)"/>
<path d="M0 0 C2.5 2.3125 2.5 2.3125 5 5 C5 5.99 5 6.98 5 8 C4.34 8 3.68 8 3 8 C1.63722914 9.78965547 1.63722914 9.78965547 0.375 12 C-0.07101562 12.7425 -0.51703125 13.485 -0.9765625 14.25 C-1.31429688 14.8275 -1.65203125 15.405 -2 16 C0.31 15.34 2.62 14.68 5 14 C5.33 12.35 5.66 10.7 6 9 C6.66 9 7.32 9 8 9 C9.2890625 10.75 9.2890625 10.75 10.625 13 C11.07101562 13.7425 11.51703125 14.485 11.9765625 15.25 C12.48316406 16.11625 12.48316406 16.11625 13 17 C12.39671875 17.08121094 11.7934375 17.16242188 11.171875 17.24609375 C8.31824391 18.23665274 7.72890279 19.47442011 6.25 22.0625 C5.60804688 23.16271484 5.60804688 23.16271484 4.953125 24.28515625 C4.48132813 25.13400391 4.48132813 25.13400391 4 26 C4.54269531 25.7834375 5.08539063 25.566875 5.64453125 25.34375 C6.71767578 24.92609375 6.71767578 24.92609375 7.8125 24.5 C8.52019531 24.2215625 9.22789062 23.943125 9.95703125 23.65625 C12 23 12 23 15 23 C15.33 22.01 15.66 21.02 16 20 C16.66 21.32 17.32 22.64 18 24 C14.7096777 25.00446104 11.41753178 26.00280756 8.125 27 C7.18785156 27.28617188 6.25070312 27.57234375 5.28515625 27.8671875 C4.38925781 28.13789062 3.49335938 28.40859375 2.5703125 28.6875 C1.74289551 28.93886719 0.91547852 29.19023438 0.06298828 29.44921875 C-2 30 -2 30 -4 30 C-2.54955729 25.89041233 -0.48889248 22.56741255 2 19 C-2.29 19.66 -6.58 20.32 -11 21 C-8.85853594 15.64633984 -6.05577103 11.54109661 -2.77734375 6.83984375 C-1.26018357 4.41572189 -0.43370932 2.78241212 0 0 Z " fill="#191919" transform="translate(266,62)"/>
<path d="M0 0 C7.425 0.99 7.425 0.99 15 2 C14.01 2.66 13.02 3.32 12 4 C11.30471939 6.60328285 11.30471939 6.60328285 11.05078125 9.6640625 C10.92509766 10.78554688 10.79941406 11.90703125 10.66992188 13.0625 C10.55197266 14.238125 10.43402344 15.41375 10.3125 16.625 C10.18294922 17.80835938 10.05339844 18.99171875 9.91992188 20.2109375 C9.60108222 23.13953874 9.29500537 26.06891768 9 29 C9.99 29 10.98 29 12 29 C12 29.66 12 30.32 12 31 C9.68690295 30.88658363 7.37449815 30.75896193 5.0625 30.625 C3.77472656 30.55539062 2.48695313 30.48578125 1.16015625 30.4140625 C0.11730469 30.27742188 -0.92554688 30.14078125 -2 30 C-2.33 29.34 -2.66 28.68 -3 28 C-1.68 27.67 -0.36 27.34 1 27 C1.66 19.08 2.32 11.16 3 3 C2.01 2.67 1.02 2.34 0 2 C0 1.34 0 0.68 0 0 Z " fill="#131313" transform="translate(139,275)"/>
<path d="M0 0 C3.38677089 2.45000447 4.78698584 3.86392446 5.5625 8 C4.83450185 11.88265681 4.06018871 13.46228253 1 16 C-2.14554324 16.71568323 -4.8537034 16.7087811 -8 16 C-10.625 13.9375 -10.625 13.9375 -12 11 C-12 7.07983866 -11.55226285 4.82839428 -9.375 1.5625 C-5.99762021 -0.65946039 -3.96476406 -0.62601538 0 0 Z " fill="#201D1E" transform="translate(59,236)"/>
<path d="M0 0 C2.9375 1.5 2.9375 1.5 5 4 C5.9352036 8.00332769 5.61385602 10.97690664 3.5 14.5 C-0.03588973 16.62153384 -2.97901723 16.791013 -7 16 C-9.5 14.5 -9.5 14.5 -11 12 C-11.79669284 7.95014472 -11.64099302 5.02558884 -9.4375 1.5 C-6.03618625 -0.59311615 -3.92927257 -0.55147685 0 0 Z " fill="#1F1C1D" transform="translate(270,236)"/>
<path d="M0 0 C4.75 0.75 4.75 0.75 7 3 C8.45236984 10.09368006 5.84838166 16.12247165 2 22 C-0.70879335 23.35439668 -3.00933268 23.06501451 -6 23 C-7.48561922 18.40165478 -5.75028455 15.28396258 -4 11 C-3.26321747 9.00279307 -2.53419648 7.00270772 -1.8125 5 C-1.46832031 4.05125 -1.12414062 3.1025 -0.76953125 2.125 C-0.51558594 1.42375 -0.26164062 0.7225 0 0 Z " fill="#F4F4F4" transform="translate(117,272)"/>
<path d="M0 0 C1.98 0 3.96 0 6 0 C6 0.66 6 1.32 6 2 C5.360625 2.226875 4.72125 2.45375 4.0625 2.6875 C1.72806339 3.85250896 1.72806339 3.85250896 1.25 6.625 C1.1675 7.40875 1.085 8.1925 1 9 C3.31 9.33 5.62 9.66 8 10 C6.68 8.35 5.36 6.7 4 5 C7.3 5.33 10.6 5.66 14 6 C14 6.66 14 7.32 14 8 C12.68 8 11.36 8 10 8 C10 8.99 10 9.98 10 11 C12.31 11 14.62 11 17 11 C17.46522293 6.20691658 17.46522293 6.20691658 15.5 2.0625 C15.005 1.711875 14.51 1.36125 14 1 C15.98 1.66 17.96 2.32 20 3 C19.4618629 8.69051363 18.8599867 14.34865884 18 20 C17.34 20 16.68 20 16 20 C16 19.01 16 18.02 16 17 C15.03900391 16.90912109 15.03900391 16.90912109 14.05859375 16.81640625 C10.01989289 16.42517591 6.00584566 16.02711441 2 15.375 C-0.91910622 14.72842803 -0.91910622 14.72842803 -3 16 C-2.01 10.72 -1.02 5.44 0 0 Z " fill="#151515" transform="translate(23,125)"/>
<path d="M0 0 C0 0.66 0 1.32 0 2 C-0.66 2 -1.32 2 -2 2 C-1.01 7.61 -0.02 13.22 1 19 C2.65 19 4.3 19 6 19 C6.17015625 18.37351562 6.3403125 17.74703125 6.515625 17.1015625 C6.75796875 16.28429687 7.0003125 15.46703125 7.25 14.625 C7.48203125 13.81289063 7.7140625 13.00078125 7.953125 12.1640625 C9.2214892 9.54214546 10.32423308 9.00617682 13 8 C13.99 10.31 14.98 12.62 16 15 C13.69 15.33 11.38 15.66 9 16 C8.67 16.99 8.34 17.98 8 19 C8.99 19 9.98 19 11 19 C11 19.66 11 20.32 11 21 C5.27959989 21.8320582 -0.22240116 22.12036664 -6 22 C-5.95875 21.071875 -5.9175 20.14375 -5.875 19.1875 C-5.875 14.06686589 -6.67261734 8.94081322 -8 4 C-8.66 3.34 -9.32 2.68 -10 2 C-8.7090864 1.66376204 -7.41723903 1.33110751 -6.125 1 C-5.40570313 0.814375 -4.68640625 0.62875 -3.9453125 0.4375 C-2 0 -2 0 0 0 Z " fill="#181818" transform="translate(146,17)"/>
<path d="M0 0 C4.63979946 1.13806402 4.63979946 1.13806402 7 3 C8.99708655 7.48311498 10 12.09773421 10 17 C10.66 17 11.32 17 12 17 C12.12375 16.2575 12.2475 15.515 12.375 14.75 C12.95486701 12.19858515 13.73708739 10.2732427 15 8 C14.34 8 13.68 8 13 8 C13 7.34 13 6.68 13 6 C14.98 6.66 16.96 7.32 19 8 C18.69707031 8.46148437 18.39414063 8.92296875 18.08203125 9.3984375 C14.64571231 14.74852175 11.75750007 20.2737871 9 26 C7 25 7 25 6.31396484 23.32592773 C6.11496582 22.61895752 5.9159668 21.9119873 5.7109375 21.18359375 C5.49179688 20.41982422 5.27265625 19.65605469 5.046875 18.86914062 C4.82515625 18.06669922 4.6034375 17.26425781 4.375 16.4375 C4.03082031 15.22803711 4.03082031 15.22803711 3.6796875 13.99414062 C3.11275846 11.99807797 2.55547357 9.99928081 2 8 C1.29866401 9.57725347 0.614417 11.16211333 -0.0625 12.75 C-0.44535156 13.63171875 -0.82820312 14.5134375 -1.22265625 15.421875 C-2.04600008 18.15256309 -1.9773992 19.36901347 -1 22 C-3.31 21.34 -5.62 20.68 -8 20 C-8 19.34 -8 18.68 -8 18 C-6.68 18 -5.36 18 -4 18 C-3.80664062 17.41992188 -3.61328125 16.83984375 -3.4140625 16.2421875 C-3.02347656 15.07042969 -3.02347656 15.07042969 -2.625 13.875 C-2.35429687 13.05515625 -2.08359375 12.2353125 -1.8046875 11.390625 C-1.15381425 9.45696272 -0.45861371 7.53825702 0.25 5.625 C1.28867655 2.9248898 1.28867655 2.9248898 0 0 Z " fill="#181818" transform="translate(208,24)"/>
<path d="M0 0 C-1.67923025 3.80133442 -4.11462834 6.97082702 -6.625 10.25 C-7.04523437 10.80429688 -7.46546875 11.35859375 -7.8984375 11.9296875 C-8.92938719 13.28866663 -9.96429911 14.64463835 -11 16 C-9.03964825 15.55037804 -7.08175691 15.09001752 -5.125 14.625 C-4.03445312 14.36976563 -2.94390625 14.11453125 -1.8203125 13.8515625 C1.10408455 13.21093785 1.10408455 13.21093785 3 11 C3.66 13.31 4.32 15.62 5 18 C4.34 18 3.68 18 3 18 C3 17.34 3 16.68 3 16 C2.02417969 16.2165625 1.04835938 16.433125 0.04296875 16.65625 C-1.22933594 16.9346875 -2.50164063 17.213125 -3.8125 17.5 C-5.07707031 17.7784375 -6.34164062 18.056875 -7.64453125 18.34375 C-11 19 -11 19 -14 19 C-14 19.99 -14 20.98 -14 22 C-14.66 22 -15.32 22 -16 22 C-16.86784199 19.28076177 -17.3045712 17.78682652 -17 15 C-15.00884658 11.69052797 -12.53531512 8.9007153 -10 6 C-9.34 5.01 -8.68 4.02 -8 3 C-9.46224799 3.42423244 -10.91973412 3.86490245 -12.375 4.3125 C-13.59316406 4.67794922 -13.59316406 4.67794922 -14.8359375 5.05078125 C-17.33184629 5.91368185 -17.33184629 5.91368185 -19 9 C-19.66 6.69 -20.32 4.38 -21 2 C-20.34 2 -19.68 2 -19 2 C-19 2.66 -19 3.32 -19 4 C-17.96359375 3.71125 -16.9271875 3.4225 -15.859375 3.125 C-14.48965604 2.74973453 -13.1198603 2.37474921 -11.75 2 C-11.06808594 1.80921875 -10.38617188 1.6184375 -9.68359375 1.421875 C-6.29399088 0.50042956 -3.54221024 0 0 0 Z " fill="#111111" transform="translate(42,182)"/>
<path d="M0 0 C6.47556391 0.61090226 6.47556391 0.61090226 8.9375 2.4375 C10 4 10 4 10 6 C10.99 6.33 11.98 6.66 13 7 C12.01 7 11.02 7 10 7 C10.89335797 9.35785318 10.89335797 9.35785318 14.0625 10.125 C15.031875 10.41375 16.00125 10.7025 17 11 C17 10.34 17 9.68 17 9 C17.66 9 18.32 9 19 9 C18.55090939 10.48199902 18.09043436 11.96055236 17.625 13.4375 C17.24214844 14.67306641 17.24214844 14.67306641 16.8515625 15.93359375 C16 18 16 18 14 19 C14 17.68 14 16.36 14 15 C13.43152344 14.87882812 12.86304687 14.75765625 12.27734375 14.6328125 C8.49238699 13.81136946 4.7631462 12.96016876 1.0625 11.8125 C-1.88789189 10.66827026 -1.88789189 10.66827026 -4 12 C-3.52309796 10.37433394 -3.04340334 8.74948689 -2.5625 7.125 C-2.29566406 6.22007813 -2.02882813 5.31515625 -1.75390625 4.3828125 C-1 2 -1 2 0 0 Z " fill="#1C1C1C" transform="translate(29,107)"/>
<path d="M0 0 C4.6029598 1.72497507 8.93255824 3.9095871 13.3125 6.125 C14.05306641 6.49753906 14.79363281 6.87007812 15.55664062 7.25390625 C17.37201217 8.16744806 19.18613282 9.08347487 21 10 C18.6875 12.5 18.6875 12.5 16 15 C15.01 15 14.02 15 13 15 C13 14.34 13 13.68 13 13 C11.68 13 10.36 13 9 13 C8.34 13.66 7.68 14.32 7 15 C7 15.99 7 16.98 7 18 C7.99 18 8.98 18 10 18 C9.67 18.99 9.34 19.98 9 21 C6.4375 22.1875 6.4375 22.1875 4 23 C3.896875 21.80375 3.79375 20.6075 3.6875 19.375 C2.9741815 12.81876379 1.45310124 6.42471808 0 0 Z " fill="#141414" transform="translate(74,46)"/>
<path d="M0 0 C3.61798433 1.67662688 4.79766022 3.65782045 6.5625 7.1875 C7.3125 9.75 7.3125 9.75 6.5625 12.1875 C4.09539076 14.2353222 1.39577033 15.70461931 -1.4375 17.1875 C-2.55125 17.785625 -3.665 18.38375 -4.8125 19 C-7.4375 20.1875 -7.4375 20.1875 -9.4375 20.1875 C-9.7675 20.8475 -10.0975 21.5075 -10.4375 22.1875 C-11.7575 19.5475 -13.0775 16.9075 -14.4375 14.1875 C-13.014375 14.0946875 -13.014375 14.0946875 -11.5625 14 C-6.36622751 13.29578237 -1.98478625 10.66700619 2.5625 8.1875 C2.06493908 5.43108584 2.06493908 5.43108584 0.5625 3.1875 C-4.44991685 3.58063073 -8.03109121 4.83058367 -12.4375 7.1875 C-13.0975 7.1875 -13.7575 7.1875 -14.4375 7.1875 C-14.7675 8.5075 -15.0975 9.8275 -15.4375 11.1875 C-17 8.8125 -17 8.8125 -18.4375 6.1875 C-18.1075 5.5275 -17.7775 4.8675 -17.4375 4.1875 C-16.4475 4.5175 -15.4575 4.8475 -14.4375 5.1875 C-11.85737276 4.16024845 -11.85737276 4.16024845 -9.125 2.6875 C-5.78357701 1.11376912 -3.71575221 0.20267739 0 0 Z " fill="#171717" transform="translate(46.4375,203.8125)"/>
<path d="M0 0 C3.16539492 1.78441381 6.09028256 3.82741098 9 6 C8.125 11.875 8.125 11.875 7 13 C1.43728521 13.68114875 -1.89439602 12.51279748 -6.38671875 9.43359375 C-8 8 -8 8 -9.1875 5.375 C-9 3 -9 3 -7.9375 1.1875 C-4.95529038 -0.6403059 -3.48036907 -0.58006151 0 0 Z " fill="#F0F0F0" transform="translate(281,207)"/>
<path d="M0 0 C0.8353125 1.0209375 0.8353125 1.0209375 1.6875 2.0625 C-1.3125 2.0625 -4.3125 2.0625 -7.3125 2.0625 C-7.6425 3.3825 -7.9725 4.7025 -8.3125 6.0625 C-7.57644531 6.01609375 -6.84039062 5.9696875 -6.08203125 5.921875 C1.98767153 5.62339194 1.98767153 5.62339194 5.875 8.0625 C6.7721875 9.0525 6.7721875 9.0525 7.6875 10.0625 C7.42477987 13.91572864 7.11458562 15.62387153 4.375 18.4375 C1.6875 20.0625 1.6875 20.0625 -2.3125 20.0625 C-2.6425 20.7225 -2.9725 21.3825 -3.3125 22.0625 C-4.6325 19.7525 -5.9525 17.4425 -7.3125 15.0625 C-6.77625 15.3925 -6.24 15.7225 -5.6875 16.0625 C-2.7733939 17.28949204 -0.44382292 17.20483286 2.6875 17.0625 C3.0175 15.7425 3.3475 14.4225 3.6875 13.0625 C2.93984375 13.03671875 2.1921875 13.0109375 1.421875 12.984375 C-6.60685897 12.52198718 -6.60685897 12.52198718 -10 10.3125 C-11.61555855 7.54297105 -11.9428323 6.21416152 -11.3125 3.0625 C-9.34952065 0.44519421 -7.847972 -0.7233112 -4.8125 -1.9375 C-2.3125 -1.9375 -2.3125 -1.9375 0 0 Z " fill="#1F1F1F" transform="translate(100.3125,33.9375)"/>
<path d="M0 0 C3.11198065 1.49836105 6.0534615 3.19933758 9 5 C8.41992188 5.21914063 7.83984375 5.43828125 7.2421875 5.6640625 C4.28084374 7.42848683 2.98898587 9.49007581 1.125 12.375 C0.48820313 13.33148438 -0.14859375 14.28796875 -0.8046875 15.2734375 C-2.32696296 17.90993013 -2.32696296 17.90993013 -1.1953125 20.3515625 C-0.60363281 21.16753906 -0.60363281 21.16753906 0 22 C1.98 22 3.96 22 6 22 C6.37125 20.9171875 6.37125 20.9171875 6.75 19.8125 C8 17 8 17 10.125 14.4375 C12.40647384 11.98412212 12.40647384 11.98412212 12 8 C16.875 9.75 16.875 9.75 18 12 C17.41992188 12.0515625 16.83984375 12.103125 16.2421875 12.15625 C12.15056286 13.69595544 10.46357132 17.96815518 8.1953125 21.53125 C6 24 6 24 2.98828125 25.00390625 C-1.24617326 24.99837102 -2.75244867 23.58568307 -5.6953125 20.734375 C-7 19 -7 19 -7.3125 16.1875 C-5.76555397 12.43063106 -3.70004145 9.39770265 -1.27734375 6.1484375 C0.34069612 3.84354339 0.34069612 3.84354339 0 0 Z " fill="#161616" transform="translate(231,35)"/>
<path d="M0 0 C3.125 1.1875 3.125 1.1875 5 3 C5.4375 5.5625 5.4375 5.5625 5 8 C2.22190605 10.77809395 0.43244797 10.29955703 -3.4375 10.3125 C-5.16806641 10.33763672 -5.16806641 10.33763672 -6.93359375 10.36328125 C-10 10 -10 10 -11.88671875 8.640625 C-13.47294279 6.30303167 -13.42406567 4.75642685 -13 2 C-8.7404973 -0.83966847 -4.99727001 -0.50927592 0 0 Z " fill="#F5F5F5" transform="translate(297,162)"/>
<path d="M0 0 C1.98 0 3.96 0 6 0 C7.26582219 3.86723631 7.1118765 7.73151262 7.0625 11.75 C7.05798828 12.44738281 7.05347656 13.14476562 7.04882812 13.86328125 C7.0371002 15.57555803 7.01916653 17.28779033 7 19 C5.35 19 3.7 19 2 19 C2.474375 18.5875 2.94875 18.175 3.4375 17.75 C5.16266518 15.817815 5.56584875 14.51807725 6 12 C5.01 12.33 4.02 12.66 3 13 C-0.61474101 13.2320999 -4.22830977 13.38150234 -7.84765625 13.5234375 C-8.88792969 13.68070313 -9.92820312 13.83796875 -11 14 C-11.99 15.485 -11.99 15.485 -13 17 C-14.66342837 15.33657163 -14.36048097 13.2174291 -14.5625 10.9375 C-14.64628906 10.01839844 -14.73007812 9.09929687 -14.81640625 8.15234375 C-14.90728516 7.08693359 -14.90728516 7.08693359 -15 6 C-14.34 6 -13.68 6 -13 6 C-13 6.66 -13 7.32 -13 8 C-7.06 7.67 -1.12 7.34 5 7 C4.34 5.68 3.68 4.36 3 3 C2.01 2.67 1.02 2.34 0 2 C0 1.34 0 0.68 0 0 Z " fill="#252525" transform="translate(296,134)"/>
<path d="M0 0 C2.375 1.875 2.375 1.875 4 4 C4 4.66 4 5.32 4 6 C4.66 6.33 5.32 6.66 6 7 C4.35 8.32 2.7 9.64 1 11 C1 8.69 1 6.38 1 4 C-0.65 3.34 -2.3 2.68 -4 2 C-3.67 2.99 -3.34 3.98 -3 5 C-1.69394598 9.62286748 -0.77729346 14.62651083 -3.0625 19.0625 C-6.28040235 20.61954952 -8.63552061 19.90119984 -12 19 C-13.9375 17.0625 -13.9375 17.0625 -15 15 C-15 14.34 -15 13.68 -15 13 C-15.99 12.67 -16.98 12.34 -18 12 C-16.02 10.35 -14.04 8.7 -12 7 C-12 9.97 -12 12.94 -12 16 C-10.68 16.33 -9.36 16.66 -8 17 C-8.10699219 16.02417969 -8.21398437 15.04835938 -8.32421875 14.04296875 C-8.44410156 12.77066406 -8.56398437 11.49835937 -8.6875 10.1875 C-8.81511719 8.92292969 -8.94273437 7.65835938 -9.07421875 6.35546875 C-9 3 -9 3 -7.703125 1.078125 C-5.01591652 -0.62295193 -3.10026607 -0.44289515 0 0 Z " fill="#1C1C1C" transform="translate(256,52)"/>
<path d="M0 0 C2.475 0.99 2.475 0.99 5 2 C5 2.33 5 2.66 5 3 C3.02 3.33 1.04 3.66 -1 4 C0.44282059 7.44758183 2.24317911 9.28029268 5.125 11.625 C6.45281461 12.70709803 7.75453824 13.82405239 9 15 C9 15.66 9 16.32 9 17 C10.32 16.67 11.64 16.34 13 16 C12.04956626 17.33897583 11.08940853 18.67105427 10.125 20 C9.59132813 20.7425 9.05765625 21.485 8.5078125 22.25 C8.01023437 22.8275 7.51265625 23.405 7 24 C6.34 24 5.68 24 5 24 C4.92652344 23.27425781 4.85304688 22.54851562 4.77734375 21.80078125 C3.79147218 18.24867112 2.20000667 16.73216643 -0.4375 14.1875 C-1.24058594 13.39730469 -2.04367188 12.60710937 -2.87109375 11.79296875 C-4.79106835 9.78527368 -4.79106835 9.78527368 -7 10 C-7 11.98 -7 13.96 -7 16 C-8.32 15.34 -9.64 14.68 -11 14 C-11 11 -11 11 -8.59375 8.30078125 C-7.5700032 7.29697757 -6.5383946 6.30114351 -5.5 5.3125 C-4.97535156 4.80138672 -4.45070313 4.29027344 -3.91015625 3.76367188 C-2.61339096 2.50227292 -1.30753883 1.25022788 0 0 Z " fill="#181818" transform="translate(64,55)"/>
<path d="M0 0 C12.21 0 24.42 0 37 0 C37 0.66 37 1.32 37 2 C25.45 2 13.9 2 2 2 C2 24.11 2 46.22 2 69 C1.67 69 1.34 69 1 69 C0.67 46.23 0.34 23.46 0 0 Z " fill="#033684" transform="translate(73,151)"/>
<path d="M0 0 C6.66666667 3.33333333 13.33333333 6.66666667 20 10 C20 10.66 20 11.32 20 12 C18.33710937 12.61488281 18.33710937 12.61488281 16.640625 13.2421875 C15.17703971 13.78634101 13.71350045 14.33061835 12.25 14.875 C11.52039062 15.14441406 10.79078125 15.41382813 10.0390625 15.69140625 C6.59889584 16.97365019 3.23520433 18.24617871 0 20 C0 17.69 0 15.38 0 13 C0.71027344 12.72285156 1.42054687 12.44570312 2.15234375 12.16015625 C3.53099609 11.61681641 3.53099609 11.61681641 4.9375 11.0625 C5.85402344 10.70285156 6.77054688 10.34320313 7.71484375 9.97265625 C9.92418533 9.2003782 9.92418533 9.2003782 11 8 C9.9275 7.505 8.855 7.01 7.75 6.5 C7.14671875 6.2215625 6.5434375 5.943125 5.921875 5.65625 C3.70757164 4.78457076 3.70757164 4.78457076 0 5 C0 3.35 0 1.7 0 0 Z " fill="#131313" transform="translate(20,146)"/>
<path d="M0 0 C0.66 0 1.32 0 2 0 C2.33 3.3 2.66 6.6 3 10 C2.34 10 1.68 10 1 10 C1 9.34 1 8.68 1 8 C-1.81403301 8.28050806 -4.62567253 8.57381304 -7.4375 8.875 C-8.23994141 8.95363281 -9.04238281 9.03226563 -9.86914062 9.11328125 C-11.92170994 9.33845763 -13.96293009 9.66222587 -16 10 C-16.33 10.66 -16.66 11.32 -17 12 C-17.66 12 -18.32 12 -19 12 C-19 8.7 -19 5.4 -19 2 C-18.67 2.66 -18.34 3.32 -18 4 C-16.700625 3.835 -15.40125 3.67 -14.0625 3.5 C-9.34580713 2.9684362 -4.74361065 2.92470459 0 3 C0 2.01 0 1.02 0 0 Z " fill="#1F1F1F" transform="translate(39,168)"/>
<path d="M0 0 C2 1 2 1 2.8125 2.83203125 C4.37922179 5.69232925 6.30413593 6.88111434 9 8.6875 C10.3303125 9.59048828 10.3303125 9.59048828 11.6875 10.51171875 C13.90343595 11.9967142 13.90343595 11.9967142 16 13 C16 12.34 16 11.68 16 11 C16.66 11 17.32 11 18 11 C16.44499019 14.81684226 13.96404505 17.19195732 11 20 C11 18.68 11 17.36 11 16 C10.15115234 15.60361328 10.15115234 15.60361328 9.28515625 15.19921875 C6.01558247 13.48339114 3.11366548 11.29938476 0.12109375 9.14453125 C-0.57886719 8.76683594 -1.27882812 8.38914062 -2 8 C-2.99 8.33 -3.98 8.66 -5 9 C-3.7508258 5.54074837 -2.32472205 2.85306797 0 0 Z " fill="#191919" transform="translate(49,71)"/>
<path d="M0 0 C2.25 -0.3125 2.25 -0.3125 5 0 C8.33763611 3.52306033 10.14342626 6.16865728 10.25 11 C10.28867188 12.051875 10.28867188 12.051875 10.328125 13.125 C10.21984375 13.74375 10.1115625 14.3625 10 15 C7 17 7 17 4 17 C3.32844651 14.73050898 2.6626037 12.4596039 2 10.1875 C1.443125 8.29064453 1.443125 8.29064453 0.875 6.35546875 C0 3 0 3 0 0 Z " fill="#EAEAEA" transform="translate(120,24)"/>
<path d="M0 0 C2.36020967 2.1485844 3.71551468 4.11743365 5.04296875 7.01171875 C5.39423828 7.76904297 5.74550781 8.52636719 6.10742188 9.30664062 C6.46384766 10.09232422 6.82027344 10.87800781 7.1875 11.6875 C7.55552734 12.48478516 7.92355469 13.28207031 8.30273438 14.10351562 C9.2077297 16.06629769 10.10465652 18.03279639 11 20 C8.36 20 5.72 20 3 20 C2.896875 19.29875 2.79375 18.5975 2.6875 17.875 C1.90640997 14.60862353 0.57941257 11.9528148 -1 9 C-1.99 9.66 -2.98 10.32 -4 11 C-3.39301257 6.87248551 -1.96189209 3.6678852 0 0 Z " fill="#121212" transform="translate(160,17)"/>
<path d="M0 0 C0.625 2.0625 0.625 2.0625 1 4 C3.31 4 5.62 4 8 4 C7.67 5.65 7.34 7.3 7 9 C3.625 9.625 3.625 9.625 0 10 C-0.66 9.34 -1.32 8.68 -2 8 C-2 7.01 -2 6.02 -2 5 C-5.63 6.32 -9.26 7.64 -13 9 C-13.125 6.25 -13.125 6.25 -12 3 C-3.78668805 -1.89334403 -3.78668805 -1.89334403 0 0 Z " fill="#141414" transform="translate(290,190)"/>
<path d="M0 0 C2.875 -0.1875 2.875 -0.1875 6 0 C8 3 8 3 8 6 C12.95 4.515 12.95 4.515 18 3 C19 5 19 5 18.36328125 7.05859375 C17 9 17 9 14.79296875 9.78515625 C12.11157896 10.07058155 9.68720348 10.26744679 7 10 C4.125 7.625 4.125 7.625 2 5 C-0.17346568 4.13880866 -0.17346568 4.13880866 -2 4 C-1.34 2.68 -0.68 1.36 0 0 Z " fill="#111111" transform="translate(32,103)"/>
<path d="M0 0 C2.6875 -0.375 2.6875 -0.375 6 0 C9.63371374 3.23874486 10.80264585 4.75009038 11.5625 9.5625 C10.90359484 13.58914264 9.99282955 15.24983231 7 18 C4.25 18.8125 4.25 18.8125 2 19 C2.495 18.67 2.99 18.34 3.5 18 C5.43734509 15.41687321 5.47236848 13.23936568 5.3671875 10.06640625 C4.78375843 6.78306606 3.02631553 4.57894704 1 2 C0.67 1.34 0.34 0.68 0 0 Z " fill="#0F0F0F" transform="translate(124,23)"/>
<path d="M0 0 C2.68408191 0.99694471 4.91852467 1.94115671 7.25 3.625 C11.15681746 5.57840873 14.71063726 5.25231546 19 5 C17.5625 7.5 17.5625 7.5 15 10 C11.15953859 10.9473624 7.64626766 10.82145739 4.08203125 9.04296875 C2.4375 7.8125 2.4375 7.8125 0 5 C-0.375 2.1875 -0.375 2.1875 0 0 Z " fill="#0C0C0C" transform="translate(271,214)"/>
<path d="M0 0 C0.66 0.33 1.32 0.66 2 1 C1.67 1.33 1.34 1.66 1 2 C1.28360744 6.4431832 2.2862737 9.85595871 4.0625 13.9375 C6.02527832 18.61961846 6.53163969 21.94942296 6 27 C5.34 27.99 4.68 28.98 4 30 C2.68 29.67 1.36 29.34 0 29 C0.495 28.62875 0.99 28.2575 1.5 27.875 C3.67769431 25.15288211 3.27224676 23.45112804 3 20 C2.17281864 17.3199324 1.30511307 14.83198343 0.25 12.25 C-0.00265625 11.57839844 -0.2553125 10.90679687 -0.515625 10.21484375 C-1.69928912 7.26160177 -2.50407556 5.3270991 -5.203125 3.546875 C-5.79609375 3.36640625 -6.3890625 3.1859375 -7 3 C-4.69631264 1.93347808 -2.35981813 0.93578995 0 0 Z " fill="#232323" transform="translate(216,264)"/>
<path d="M0 0 C3.93673644 1.31224548 6.22719294 2.91910327 9 6 C8.29101562 5.84789062 7.58203125 5.69578125 6.8515625 5.5390625 C3.48892649 6.08261188 3.19607823 6.59422432 1.2109375 9.2109375 C0.2489637 10.58746355 -0.69582169 11.97612716 -1.625 13.375 C-2.57106846 14.76086245 -3.52143218 16.14380482 -4.4765625 17.5234375 C-4.88986816 18.14138184 -5.30317383 18.75932617 -5.72900391 19.39599609 C-7 21 -7 21 -10 23 C-12.33199388 23.07905064 -14.66832622 23.08798769 -17 23 C-15 21 -15 21 -11.6875 19.7734375 C-7.57463238 18.07325311 -5.3936516 15.27716945 -3 11.625 C-2.59394531 11.06039063 -2.18789062 10.49578125 -1.76953125 9.9140625 C0.13220821 7.11013265 1.04385894 5.51123075 0.75 2.0859375 C0.5025 1.39757812 0.255 0.70921875 0 0 Z " fill="#242424" transform="translate(97,259)"/>
<path d="M0 0 C2.50037734 2.17424117 3.43628586 3.73045798 4 7 C1.69 7.33 -0.62 7.66 -3 8 C-3.33 8.99 -3.66 9.98 -4 11 C-3.01 11 -2.02 11 -1 11 C-1 11.66 -1 12.32 -1 13 C-5.95 13.33 -10.9 13.66 -16 14 C-16 13.67 -16 13.34 -16 13 C-12.7 12.34 -9.4 11.68 -6 11 C-5.3503125 8.834375 -5.3503125 8.834375 -4.6875 6.625 C-3.57996014 2.93320048 -3.3566285 2.23775234 0 0 Z " fill="#727272" transform="translate(158,25)"/>
<path d="M0 0 C2.31 0.66 4.62 1.32 7 2 C6.42655063 4.86724686 6.1385485 5.8614515 4 8 C4 8.99 4 9.98 4 11 C4.99 11 5.98 11 7 11 C6.67 11.99 6.34 12.98 6 14 C3.4375 15.1875 3.4375 15.1875 1 16 C0.93941406 15.41992188 0.87882812 14.83984375 0.81640625 14.2421875 C0.42923098 10.63252264 0.01357631 7.07602732 -0.625 3.5 C-0.74875 2.675 -0.8725 1.85 -1 1 C-0.67 0.67 -0.34 0.34 0 0 Z " fill="#2F2F2F" transform="translate(77,53)"/>
<path d="M0 0 C0.66 0 1.32 0 2 0 C3.2890625 1.75 3.2890625 1.75 4.625 4 C5.07101563 4.7425 5.51703125 5.485 5.9765625 6.25 C6.31429687 6.8275 6.65203125 7.405 7 8 C6.42765625 7.83628906 5.8553125 7.67257812 5.265625 7.50390625 C3.00436354 7.00097051 1.05993054 6.89900116 -1.25 6.9375 C-2.4875 6.958125 -3.725 6.97875 -5 7 C-5.66 8.65 -6.32 10.3 -7 12 C-7.66 11.67 -8.32 11.34 -9 11 C-9.66 11.99 -10.32 12.98 -11 14 C-10.8632205 11.05924078 -10.66978103 8.80249306 -8.73828125 6.48828125 C-5.58250216 3.71405732 -4.29029965 3 0 3 C0 2.01 0 1.02 0 0 Z " fill="#363636" transform="translate(235,250)"/>
<path d="M0 0 C0.66 0.33 1.32 0.66 2 1 C2.33 6.94 2.66 12.88 3 19 C4.32 19.33 5.64 19.66 7 20 C7 20.66 7 21.32 7 22 C3.7 22 0.4 22 -3 22 C-2.01 21.67 -1.02 21.34 0 21 C-0.03552979 20.43490723 -0.07105957 19.86981445 -0.10766602 19.28759766 C-0.26501802 16.73371428 -0.41386008 14.1794046 -0.5625 11.625 C-0.61857422 10.73554688 -0.67464844 9.84609375 -0.73242188 8.9296875 C-0.78076172 8.07890625 -0.82910156 7.228125 -0.87890625 6.3515625 C-0.94960327 5.17327881 -0.94960327 5.17327881 -1.02172852 3.97119141 C-1 2 -1 2 0 0 Z " fill="#343434" transform="translate(164,284)"/>
<path d="M0 0 C0.125 2.375 0.125 2.375 0 5 C-3.00617269 8.00617269 -5.82381598 7.59585316 -10 8 C-10.3125 5.6875 -10.3125 5.6875 -10 3 C-6.71110421 0.27491491 -4.21712557 -0.36146791 0 0 Z " fill="#F0F0F0" transform="translate(55,94)"/>
<path d="M0 0 C1.65 0.33 3.3 0.66 5 1 C3.25 6.75 3.25 6.75 1 9 C-1.32275177 9.40047444 -3.65739357 9.7397104 -6 10 C-4.02 6.7 -2.04 3.4 0 0 Z " fill="#EEEEEE" transform="translate(269,69)"/>
<path d="M0 0 C0.66 0.99 1.32 1.98 2 3 C1.01 3 0.02 3 -1 3 C-1.33 2.67 -1.66 2.34 -2 2 C-7.01241685 2.39313073 -10.59359121 3.64308367 -15 6 C-15.66 6 -16.32 6 -17 6 C-17.33 7.32 -17.66 8.64 -18 10 C-19.5625 7.625 -19.5625 7.625 -21 5 C-20.67 4.34 -20.34 3.68 -20 3 C-19.01 3.33 -18.02 3.66 -17 4 C-14.41987276 2.97274845 -14.41987276 2.97274845 -11.6875 1.5 C-4.58626033 -1.8815427 -4.58626033 -1.8815427 0 0 Z " fill="#2E2E2E" transform="translate(49,205)"/>
<path d="M0 0 C4.875 0.875 4.875 0.875 6 2 C6.14115161 4.67058851 6.04247107 7.32432238 6 10 C5.34 10 4.68 10 4 10 C3.34 11.32 2.68 12.64 2 14 C1.66179834 12.4176994 1.32964061 10.83410625 1 9.25 C0.814375 8.36828125 0.62875 7.4865625 0.4375 6.578125 C0 4 0 4 0 0 Z " fill="#EBEBEB" transform="translate(252,54)"/>
<path d="M0 0 C0.515625 0.309375 1.03125 0.61875 1.5625 0.9375 C5.92149702 2.83757562 10.4499868 3.63800475 15 2 C14.67 2.99 14.34 3.98 14 5 C12.02 5.33 10.04 5.66 8 6 C8 7.32 8 8.64 8 10 C7.34 10 6.68 10 6 10 C4.4921875 8.3203125 4.4921875 8.3203125 2.875 6.125 C2.33617187 5.40570313 1.79734375 4.68640625 1.2421875 3.9453125 C0 2 0 2 0 0 Z " fill="#252525" transform="translate(232,275)"/>
<path d="M0 0 C0 0.66 0 1.32 0 2 C-0.99 2.33 -1.98 2.66 -3 3 C-2.97679687 3.83144531 -2.95359375 4.66289062 -2.9296875 5.51953125 C-2.90261719 7.14955078 -2.90261719 7.14955078 -2.875 8.8125 C-2.85179687 9.89144531 -2.82859375 10.97039062 -2.8046875 12.08203125 C-3 15 -3 15 -5 18 C-5.33 13.05 -5.66 8.1 -6 3 C-7.32 3 -8.64 3 -10 3 C-10 2.34 -10 1.68 -10 1 C-3.375 0 -3.375 0 0 0 Z " fill="#292929" transform="translate(188,275)"/>
<path d="M0 0 C2.375 -0.125 2.375 -0.125 5 0 C5.66 0.66 6.32 1.32 7 2 C6.625 4.625 6.625 4.625 6 7 C0.25 5.125 0.25 5.125 -2 4 C-1.34 2.68 -0.68 1.36 0 0 Z " fill="#EBEBEB" transform="translate(31,108)"/>
<path d="M0 0 C1.9375 1.5 1.9375 1.5 3 3 C2.34 3.66 1.68 4.32 1 5 C0.67 4.01 0.34 3.02 0 2 C-2.64 2.66 -5.28 3.32 -8 4 C-8.66 6.31 -9.32 8.62 -10 11 C-10.66 11 -11.32 11 -12 11 C-11.71574109 7.30463414 -11.4523486 4.6785229 -9.375 1.5625 C-6.07504691 -0.60852177 -3.86948588 -0.49248002 0 0 Z " fill="#252424" transform="translate(59,236)"/>
<path d="M0 0 C6.93 0 13.86 0 21 0 C20.67 0.66 20.34 1.32 20 2 C17.03 1.505 17.03 1.505 14 1 C13.34 2.32 12.68 3.64 12 5 C10.68 5 9.36 5 8 5 C7.67 4.01 7.34 3.02 7 2 C4.69 1.67 2.38 1.34 0 1 C0 0.67 0 0.34 0 0 Z " fill="#565656" transform="translate(268,96)"/>
<path d="M0 0 C2.64 0.33 5.28 0.66 8 1 C7.67 2.65 7.34 4.3 7 6 C5.00045254 6.04254356 2.99958364 6.04080783 1 6 C0 5 0 5 -0.0625 2.4375 C-0.041875 1.633125 -0.02125 0.82875 0 0 Z " fill="#F1F1F1" transform="translate(290,189)"/>
<path d="M0 0 C6.54924649 1.58769612 10.19407505 7.49500732 13.9375 12.6875 C15.1427692 15.31073298 15.24471161 17.14503123 15 20 C13.43802705 17.65704057 11.89153541 15.30985802 10.375 12.9375 C9.70597656 11.89916016 9.70597656 11.89916016 9.0234375 10.83984375 C8 9 8 9 8 7 C7.34 7 6.68 7 6 7 C1.34090909 2.68181818 1.34090909 2.68181818 0 0 Z " fill="#F1B730" transform="translate(179,157)"/>
<path d="M0 0 C0.99 0.33 1.98 0.66 3 1 C2.67 1.99 2.34 2.98 2 4 C2.99 4.66 3.98 5.32 5 6 C5 6.66 5 7.32 5 8 C2.69 8 0.38 8 -2 8 C-2.33 7.01 -2.66 6.02 -3 5 C-1.5625 2.3125 -1.5625 2.3125 0 0 Z " fill="#E6E6E6" transform="translate(26,127)"/>
<path d="M0 0 C4.875 1.75 4.875 1.75 6 4 C5.42765625 4.05027344 4.8553125 4.10054687 4.265625 4.15234375 C0.91239513 5.40691424 -0.24320313 7.65264453 -2.25 10.5625 C-2.95640625 11.57441406 -3.6628125 12.58632813 -4.390625 13.62890625 C-5.18726563 14.80259766 -5.18726563 14.80259766 -6 16 C-6.66 15.34 -7.32 14.68 -8 14 C-7.34 14 -6.68 14 -6 14 C-5.7525 13.278125 -5.505 12.55625 -5.25 11.8125 C-4 9 -4 9 -1.875 6.4375 C0.40647384 3.98412212 0.40647384 3.98412212 0 0 Z " fill="#343434" transform="translate(243,43)"/>
<path d="M0 0 C0.66 0.66 1.32 1.32 2 2 C1.69964844 2.67546875 1.39929688 3.3509375 1.08984375 4.046875 C0.70957031 4.93890625 0.32929688 5.8309375 -0.0625 6.75 C-0.44535156 7.63171875 -0.82820312 8.5134375 -1.22265625 9.421875 C-2.04600008 12.15256309 -1.9773992 13.36901347 -1 16 C-3.31 15.34 -5.62 14.68 -8 14 C-8 13.34 -8 12.68 -8 12 C-6.68 12 -5.36 12 -4 12 C-3.79503906 11.38511719 -3.59007812 10.77023438 -3.37890625 10.13671875 C-2.25260417 6.7578125 -1.12630208 3.37890625 0 0 Z " fill="#383838" transform="translate(208,30)"/>
<path d="M0 0 C2.97 0.495 2.97 0.495 6 1 C6 1.66 6 2.32 6 3 C5.01 3.495 5.01 3.495 4 4 C3.30772968 6.80980673 3.30772968 6.80980673 2.875 10.0625 C2.70742187 11.16722656 2.53984375 12.27195312 2.3671875 13.41015625 C2.24601563 14.26480469 2.12484375 15.11945312 2 16 C1.67 15.01 1.34 14.02 1 13 C0.34 13 -0.32 13 -1 13 C-0.01 9.37 0.98 5.74 2 2 C1.34 2 0.68 2 0 2 C0 1.34 0 0.68 0 0 Z " fill="#2B2B2B" transform="translate(189,19)"/>
<path d="M0 0 C0.99 0.495 0.99 0.495 2 1 C4.0374763 1.22858114 6.08040303 1.41024278 8.125 1.5625 C9.76855469 1.68818359 9.76855469 1.68818359 11.4453125 1.81640625 C12.28835938 1.87699219 13.13140625 1.93757813 14 2 C12.02 2.99 12.02 2.99 10 4 C10.99 5.32 11.98 6.64 13 8 C12.34 8 11.68 8 11 8 C10.67 8.66 10.34 9.32 10 10 C9.34 7.69 8.68 5.38 8 3 C6.35 3 4.7 3 3 3 C2.67 3.99 2.34 4.98 2 6 C1.34 4.02 0.68 2.04 0 0 Z " fill="#242424" transform="translate(266,95)"/>
<path d="M0 0 C0.66 1.32 1.32 2.64 2 4 C1.54625 4.391875 1.0925 4.78375 0.625 5.1875 C-1.27642919 7.30832487 -2.06204028 9.33042235 -3 12 C-5 10 -7 8 -9 6 C-5.535 5.505 -5.535 5.505 -2 5 C-1.34 3.35 -0.68 1.7 0 0 Z " fill="#393939" transform="translate(55,95)"/>
<path d="M0 0 C-9.41002278 4.59225513 -9.41002278 4.59225513 -14 4 C-13 2 -13 2 -10.8203125 1.11328125 C-9.93085938 0.84902344 -9.04140625 0.58476563 -8.125 0.3125 C-7.24070312 0.04050781 -6.35640625 -0.23148437 -5.4453125 -0.51171875 C-3 -1 -3 -1 0 0 Z " fill="#414141" transform="translate(293,114)"/>
<path d="M0 0 C4.62 2.31 9.24 4.62 14 7 C9.81874785 8.39375072 7.94488851 6.73021426 4 5 C2.68 5 1.36 5 0 5 C0 3.35 0 1.7 0 0 Z " fill="#232323" transform="translate(20,146)"/>
<path d="M0 0 C0.66 0.33 1.32 0.66 2 1 C1.34 3.31 0.68 5.62 0 8 C-0.4125 7.54625 -0.825 7.0925 -1.25 6.625 C-3.06408095 4.94049626 -4.75285627 4.00734029 -7 3 C-4.69631264 1.93347808 -2.35981813 0.93578995 0 0 Z " fill="#1A1A1A" transform="translate(216,264)"/>
<path d="M0 0 C0.66 0 1.32 0 2 0 C2 0.66 2 1.32 2 2 C4.97 1.34 7.94 0.68 11 0 C11 0.66 11 1.32 11 2 C9.329375 2.4021875 9.329375 2.4021875 7.625 2.8125 C3.78159049 3.65809019 3.78159049 3.65809019 2 7 C1.34 4.69 0.68 2.38 0 0 Z " fill="#2F2F2F" transform="translate(21,184)"/>
<path d="M0 0 C0.66 0.33 1.32 0.66 2 1 C2.625 4.0625 2.625 4.0625 3 7 C2.29875 6.814375 1.5975 6.62875 0.875 6.4375 C-2.33888698 5.94843024 -4.83560336 6.33768442 -8 7 C-8 6.34 -8 5.68 -8 5 C-6.865625 4.731875 -5.73125 4.46375 -4.5625 4.1875 C-3.386875 3.795625 -2.21125 3.40375 -1 3 C-0.67 2.01 -0.34 1.02 0 0 Z " fill="#2A2A2A" transform="translate(298,123)"/>
<path d="M0 0 C0.8353125 1.0209375 0.8353125 1.0209375 1.6875 2.0625 C-0.3342996 2.0625 -2.35697908 1.9985523 -4.375 1.875 C-5.8290625 1.9678125 -5.8290625 1.9678125 -7.3125 2.0625 C-7.9725 3.0525 -8.6325 4.0425 -9.3125 5.0625 C-9.6425 4.0725 -9.9725 3.0825 -10.3125 2.0625 C-8.61393878 0.00634695 -7.388523 -0.90826039 -4.875 -1.875 C-2.3125 -1.9375 -2.3125 -1.9375 0 0 Z " fill="#2A2A2A" transform="translate(100.3125,33.9375)"/>
<path d="M0 0 C3.93673644 1.31224548 6.22719294 2.91910327 9 6 C8.236875 5.95875 7.47375 5.9175 6.6875 5.875 C3.77281584 5.77919176 3.77281584 5.77919176 1 8 C1.020625 7.05125 1.04125 6.1025 1.0625 5.125 C1.22551826 2.09333717 1.22551826 2.09333717 0 0 Z " fill="#141414" transform="translate(97,259)"/>
<path d="M0 0 C1.7074998 1.28062485 3.37373596 2.61767557 5 4 C5 4.66 5 5.32 5 6 C5.66 6.33 6.32 6.66 7 7 C5.35 8.32 3.7 9.64 2 11 C2.0825 9.906875 2.165 8.81375 2.25 7.6875 C2.41103961 3.96557142 2.41103961 3.96557142 0 2.0625 C-0.66 1.711875 -1.32 1.36125 -2 1 C-1.34 0.67 -0.68 0.34 0 0 Z " fill="#2A2A2A" transform="translate(255,52)"/>
<path d="M0 0 C0.33 0 0.66 0 1 0 C1.33 1.65 1.66 3.3 2 5 C3.32 5.33 4.64 5.66 6 6 C6 6.66 6 7.32 6 8 C2.7 8 -0.6 8 -4 8 C-3.01 7.34 -2.02 6.68 -1 6 C-0.26656572 2.93443402 -0.26656572 2.93443402 0 0 Z " fill="#161616" transform="translate(165,298)"/>
<path d="M0 0 C3.3 0.33 6.6 0.66 10 1 C10 1.66 10 2.32 10 3 C8.68 3 7.36 3 6 3 C5.67 3.99 5.34 4.98 5 6 C3.35 4.02 1.7 2.04 0 0 Z " fill="#2E2E2E" transform="translate(27,130)"/>
<path d="M0 0 C1.98 0 3.96 0 6 0 C6 0.66 6 1.32 6 2 C5.071875 2.4021875 5.071875 2.4021875 4.125 2.8125 C1.7004767 3.95556848 1.7004767 3.95556848 0 7 C-1.04449911 3.86650268 -0.93423645 3.01031744 0 0 Z " fill="#282828" transform="translate(23,125)"/>
<path d="M0 0 C0.66 0.33 1.32 0.66 2 1 C2.625 4.0625 2.625 4.0625 3 7 C2.34 7 1.68 7 1 7 C1 6.34 1 5.68 1 5 C-0.65 4.67 -2.3 4.34 -4 4 C-2.68 2.68 -1.36 1.36 0 0 Z " fill="#484848" transform="translate(44,193)"/>
<path d="M0 0 C0.556875 0.28875 1.11375 0.5775 1.6875 0.875 C4.08494645 2.0413253 6.51596939 3.0339881 9 4 C8.360625 4.12375 7.72125 4.2475 7.0625 4.375 C6.0415625 4.684375 6.0415625 4.684375 5 5 C4.67 5.66 4.34 6.32 4 7 C2.02 3.535 2.02 3.535 0 0 Z " fill="#2A2A2A" transform="translate(93,49)"/>
<path d="M0 0 C1.98 0 3.96 0 6 0 C5.34 1.32 4.68 2.64 4 4 C3.01 3.67 2.02 3.34 1 3 C0.67 2.01 0.34 1.02 0 0 Z " fill="#E3E3E3" transform="translate(275,98)"/>
<path d="M0 0 C1.65 0.99 3.3 1.98 5 3 C4.01 4.485 4.01 4.485 3 6 C2.34 6 1.68 6 1 6 C0.67 4.02 0.34 2.04 0 0 Z " fill="#E6E6E6" transform="translate(78,53)"/>
<path d="M0 0 C2.56687367 3.8503105 1.83288724 5.58569763 1 10 C0.67 9.01 0.34 8.02 0 7 C-0.66 7 -1.32 7 -2 7 C-1.34 4.69 -0.68 2.38 0 0 Z " fill="#4F4F4F" transform="translate(190,25)"/>
<path d="M0 0 C2 1 2 1 2 1 Z " fill="#FFFFFF" transform="translate(95,311)"/>
<path d="M0 0 C2 1 2 1 2 1 Z " fill="#FFFFFF" transform="translate(229,310)"/>
<path d="M0 0 C2 1 2 1 2 1 Z " fill="#FFFFFF" transform="translate(64,293)"/>
<path d="" fill="#FFFFFF" transform="translate(0,0)"/>
<path d="" fill="#FFFFFF" transform="translate(0,0)"/>
<path d="" fill="#FFFFFF" transform="translate(0,0)"/>
<path d="M0 0 C2 1 2 1 2 1 Z " fill="#FFFFFF" transform="translate(77,21)"/>
<path d="M0 0 C2 1 2 1 2 1 Z " fill="#FFFFFF" transform="translate(241,19)"/>
<path d="M0 0 C2 1 2 1 2 1 Z " fill="#FFFFFF" transform="translate(84,17)"/>
<path d="M0 0 C2 1 2 1 2 1 Z " fill="#FFFFFF" transform="translate(86,16)"/>
<path d="" fill="#FFFFFF" transform="translate(0,0)"/>
<path d="" fill="#FFFFFF" transform="translate(0,0)"/>
<path d="" fill="#FFFFFF" transform="translate(0,0)"/>
<path d="" fill="#FFFFFF" transform="translate(0,0)"/>
<path d="" fill="#FFFFFF" transform="translate(0,0)"/>
<path d="" fill="#FFFFFF" transform="translate(0,0)"/>
<path d="" fill="#FFFFFF" transform="translate(0,0)"/>
<path d="" fill="#FFFFFF" transform="translate(0,0)"/>
<path d="" fill="#FFFFFF" transform="translate(0,0)"/>
<path d="" fill="#FFFFFF" transform="translate(0,0)"/>
<path d="" fill="#FFFFFF" transform="translate(0,0)"/>
<path d="" fill="#FFFFFF" transform="translate(0,0)"/>
<path d="" fill="#FFFFFF" transform="translate(0,0)"/>
<path d="" fill="#FFFFFF" transform="translate(0,0)"/>
<path d="" fill="#FFFFFF" transform="translate(0,0)"/>
<path d="" fill="#FFFFFF" transform="translate(0,0)"/>
<path d="" fill="#FFFFFF" transform="translate(0,0)"/>
<path d="" fill="#FFFFFF" transform="translate(0,0)"/>
<path d="" fill="#FFFFFF" transform="translate(0,0)"/>
<path d="" fill="#FFFFFF" transform="translate(0,0)"/>
<path d="" fill="#FFFFFF" transform="translate(0,0)"/>
<path d="" fill="#FFFFFF" transform="translate(0,0)"/>
<path d="" fill="#FFFFFF" transform="translate(0,0)"/>
<path d="" fill="#FFFFFF" transform="translate(0,0)"/>
<path d="" fill="#FFFFFF" transform="translate(0,0)"/>
<path d="" fill="#FFFFFF" transform="translate(0,0)"/>
<path d="" fill="#FFFFFF" transform="translate(0,0)"/>
<path d="" fill="#FFFFFF" transform="translate(0,0)"/>
<path d="" fill="#FFFFFF" transform="translate(0,0)"/>
<path d="" fill="#FFFFFF" transform="translate(0,0)"/>
<path d="" fill="#FFFFFF" transform="translate(0,0)"/>
<path d="" fill="#FFFFFF" transform="translate(0,0)"/>
<path d="" fill="#FFFFFF" transform="translate(0,0)"/>
<path d="" fill="#FFFFFF" transform="translate(0,0)"/>
<path d="" fill="#FFFFFF" transform="translate(0,0)"/>
<path d="" fill="#FFFFFF" transform="translate(0,0)"/>
<path d="" fill="#FFFFFF" transform="translate(0,0)"/>
<path d="" fill="#FFFFFF" transform="translate(0,0)"/>
<path d="" fill="#FFFFFF" transform="translate(0,0)"/>
<path d="" fill="#FFFFFF" transform="translate(0,0)"/>
<path d="" fill="#FFFFFF" transform="translate(0,0)"/>
<path d="" fill="#FFFFFF" transform="translate(0,0)"/>
<path d="" fill="#FFFFFF" transform="translate(0,0)"/>
<path d="" fill="#FFFFFF" transform="translate(0,0)"/>
<path d="" fill="#FFFFFF" transform="translate(0,0)"/>
<path d="" fill="#FFFFFF" transform="translate(0,0)"/>
<path d="" fill="#FFFFFF" transform="translate(0,0)"/>
<path d="" fill="#FFFFFF" transform="translate(0,0)"/>
<path d="" fill="#FFFFFF" transform="translate(0,0)"/>
<path d="" fill="#FFFFFF" transform="translate(0,0)"/>
<path d="" fill="#FFFFFF" transform="translate(0,0)"/>
<path d="" fill="#FFFFFF" transform="translate(0,0)"/>
<path d="" fill="#FFFFFF" transform="translate(0,0)"/>
<path d="" fill="#FFFFFF" transform="translate(0,0)"/>
<path d="" fill="#FFFFFF" transform="translate(0,0)"/>
<path d="" fill="#FFFFFF" transform="translate(0,0)"/>
<path d="" fill="#FFFFFF" transform="translate(0,0)"/>
<path d="" fill="#FFFFFF" transform="translate(0,0)"/>
<path d="" fill="#FFFFFF" transform="translate(0,0)"/>
<path d="" fill="#FFFFFF" transform="translate(0,0)"/>
<path d="" fill="#FFFFFF" transform="translate(0,0)"/>
<path d="" fill="#FFFFFF" transform="translate(0,0)"/>
<path d="" fill="#FFFFFF" transform="translate(0,0)"/>
<path d="" fill="#FFFFFF" transform="translate(0,0)"/>
<path d="" fill="#FFFFFF" transform="translate(0,0)"/>
<path d="" fill="#FFFFFF" transform="translate(0,0)"/>
<path d="" fill="#FFFFFF" transform="translate(0,0)"/>
<path d="" fill="#FFFFFF" transform="translate(0,0)"/>
<path d="" fill="#FFFFFF" transform="translate(0,0)"/>
<path d="" fill="#FFFFFF" transform="translate(0,0)"/>
<path d="" fill="#FFFFFF" transform="translate(0,0)"/>
<path d="" fill="#FFFFFF" transform="translate(0,0)"/>
<path d="" fill="#FFFFFF" transform="translate(0,0)"/>
<path d="" fill="#FFFFFF" transform="translate(0,0)"/>
<path d="" fill="#FFFFFF" transform="translate(0,0)"/>
<path d="" fill="#FFFFFF" transform="translate(0,0)"/>
<path d="" fill="#FFFFFF" transform="translate(0,0)"/>
<path d="" fill="#FFFFFF" transform="translate(0,0)"/>
<path d="" fill="#FFFFFF" transform="translate(0,0)"/>
<path d="" fill="#FFFFFF" transform="translate(0,0)"/>
<path d="" fill="#FFFFFF" transform="translate(0,0)"/>
<path d="" fill="#FFFFFF" transform="translate(0,0)"/>
<path d="" fill="#FFFFFF" transform="translate(0,0)"/>
<path d="" fill="#FFFFFF" transform="translate(0,0)"/>
<path d="" fill="#FFFFFF" transform="translate(0,0)"/>
<path d="" fill="#FFFFFF" transform="translate(0,0)"/>
<path d="" fill="#FFFFFF" transform="translate(0,0)"/>
<path d="" fill="#FFFFFF" transform="translate(0,0)"/>
<path d="" fill="#FFFFFF" transform="translate(0,0)"/>
<path d="" fill="#FFFFFF" transform="translate(0,0)"/>
<path d="" fill="#FFFFFF" transform="translate(0,0)"/>
<path d="" fill="#FFFFFF" transform="translate(0,0)"/>
<path d="" fill="#FFFFFF" transform="translate(0,0)"/>
<path d="" fill="#FFFFFF" transform="translate(0,0)"/>
<path d="" fill="#FFFFFF" transform="translate(0,0)"/>
<path d="" fill="#FFFFFF" transform="translate(0,0)"/>
<path d="" fill="#FFFFFF" transform="translate(0,0)"/>
<path d="" fill="#FFFFFF" transform="translate(0,0)"/>
<path d="" fill="#FFFFFF" transform="translate(0,0)"/>
<path d="" fill="#FFFFFF" transform="translate(0,0)"/>
<path d="" fill="#FFFFFF" transform="translate(0,0)"/>
<path d="" fill="#FFFFFF" transform="translate(0,0)"/>
<path d="" fill="#FFFFFF" transform="translate(0,0)"/>
<path d="" fill="#FFFFFF" transform="translate(0,0)"/>
<path d="" fill="#FFFFFF" transform="translate(0,0)"/>
<path d="" fill="#FFFFFF" transform="translate(0,0)"/>
<path d="" fill="#FFFFFF" transform="translate(0,0)"/>
<path d="" fill="#FFFFFF" transform="translate(0,0)"/>
<path d="" fill="#FFFFFF" transform="translate(0,0)"/>
<path d="" fill="#FFFFFF" transform="translate(0,0)"/>
<path d="" fill="#FFFFFF" transform="translate(0,0)"/>
<path d="" fill="#FFFFFF" transform="translate(0,0)"/>
<path d="" fill="#FFFFFF" transform="translate(0,0)"/>
<path d="" fill="#FFFFFF" transform="translate(0,0)"/>
<path d="" fill="#FFFFFF" transform="translate(0,0)"/>
<path d="" fill="#FFFFFF" transform="translate(0,0)"/>
<path d="" fill="#FFFFFF" transform="translate(0,0)"/>
<path d="" fill="#FFFFFF" transform="translate(0,0)"/>
<path d="" fill="#FFFFFF" transform="translate(0,0)"/>
<path d="" fill="#FFFFFF" transform="translate(0,0)"/>
<path d="" fill="#FFFFFF" transform="translate(0,0)"/>
<path d="" fill="#FFFFFF" transform="translate(0,0)"/>
<path d="" fill="#FFFFFF" transform="translate(0,0)"/>
<path d="" fill="#FFFFFF" transform="translate(0,0)"/>
<path d="" fill="#FFFFFF" transform="translate(0,0)"/>
<path d="" fill="#FFFFFF" transform="translate(0,0)"/>
<path d="" fill="#FFFFFF" transform="translate(0,0)"/>
<path d="" fill="#FFFFFF" transform="translate(0,0)"/>
<path d="" fill="#FFFFFF" transform="translate(0,0)"/>
<path d="" fill="#FFFFFF" transform="translate(0,0)"/>
<path d="" fill="#FFFFFF" transform="translate(0,0)"/>
<path d="" fill="#FFFFFF" transform="translate(0,0)"/>
<path d="" fill="#FFFFFF" transform="translate(0,0)"/>
<path d="" fill="#FFFFFF" transform="translate(0,0)"/>
<path d="" fill="#FFFFFF" transform="translate(0,0)"/>
<path d="" fill="#FFFFFF" transform="translate(0,0)"/>
<path d="" fill="#FFFFFF" transform="translate(0,0)"/>
<path d="" fill="#FFFFFF" transform="translate(0,0)"/>
<path d="" fill="#FFFFFF" transform="translate(0,0)"/>
<path d="" fill="#FFFFFF" transform="translate(0,0)"/>
<path d="" fill="#FFFFFF" transform="translate(0,0)"/>
<path d="" fill="#FFFFFF" transform="translate(0,0)"/>
<path d="" fill="#FFFFFF" transform="translate(0,0)"/>
<path d="" fill="#FFFFFF" transform="translate(0,0)"/>
<path d="" fill="#FFFFFF" transform="translate(0,0)"/>
<path d="" fill="#FFFFFF" transform="translate(0,0)"/>
<path d="" fill="#FFFFFF" transform="translate(0,0)"/>
<path d="" fill="#FFFFFF" transform="translate(0,0)"/>
<path d="" fill="#FFFFFF" transform="translate(0,0)"/>
<path d="" fill="#FFFFFF" transform="translate(0,0)"/>
<path d="" fill="#FFFFFF" transform="translate(0,0)"/>
<path d="" fill="#FFFFFF" transform="translate(0,0)"/>
<path d="" fill="#FFFFFF" transform="translate(0,0)"/>
<path d="" fill="#FFFFFF" transform="translate(0,0)"/>
<path d="" fill="#FFFFFF" transform="translate(0,0)"/>
<path d="" fill="#FFFFFF" transform="translate(0,0)"/>
<path d="" fill="#FFFFFF" transform="translate(0,0)"/>
<path d="" fill="#FFFFFF" transform="translate(0,0)"/>
<path d="" fill="#FFFFFF" transform="translate(0,0)"/>
<path d="" fill="#FFFFFF" transform="translate(0,0)"/>
<path d="" fill="#FFFFFF" transform="translate(0,0)"/>
<path d="" fill="#FFFFFF" transform="translate(0,0)"/>
<path d="" fill="#FFFFFF" transform="translate(0,0)"/>
<path d="" fill="#FFFFFF" transform="translate(0,0)"/>
<path d="" fill="#FFFFFF" transform="translate(0,0)"/>
<path d="" fill="#FFFFFF" transform="translate(0,0)"/>
<path d="" fill="#FFFFFF" transform="translate(0,0)"/>
<path d="" fill="#FFFFFF" transform="translate(0,0)"/>
<path d="" fill="#FFFFFF" transform="translate(0,0)"/>
<path d="" fill="#FFFFFF" transform="translate(0,0)"/>
<path d="" fill="#FFFFFF" transform="translate(0,0)"/>
<path d="" fill="#FFFFFF" transform="translate(0,0)"/>
<path d="" fill="#FFFFFF" transform="translate(0,0)"/>
<path d="" fill="#FFFFFF" transform="translate(0,0)"/>
<path d="" fill="#FFFFFF" transform="translate(0,0)"/>
</svg>
